<svg xmlns="http://www.w3.org/2000/svg"><defs><font id="fontello" horiz-adv-x="1000"><font-face font-family="fontello" font-weight="400" ascent="850" descent="-150"/><glyph glyph-name="mail-alt" unicode="2" d="M1000 454V11q0-37-26-63t-63-27H89q-36 0-63 27T0 11v443q25-28 56-49 202-137 278-192 32-24 51-37t53-27 61-13h2q28 0 61 13t53 27 51 37q95 68 278 192 32 22 56 49zm0 164q0-44-27-84t-68-69Q695 319 643 284q-5-4-23-17t-30-22-29-18-33-15-27-5h-2q-12 0-27 5t-33 15-29 18-30 22-23 17q-51 35-147 101T96 465q-35 23-65 64T0 606q0 43 23 72t66 29h822q36 0 62-26t27-63z" horiz-adv-x="1000"/><glyph glyph-name="star" unicode="5" d="M929 489q0-12-15-27L711 265l48-279q1-4 1-12 0-11-6-19t-17-9q-10 0-22 7L464 85 214-47q-13-7-23-7-11 0-17 9t-6 19q0 4 1 12l48 279L14 462Q0 477 0 489q0 21 31 26l280 40 126 254q11 23 27 23t28-23l125-254 280-40q32-5 32-26z" horiz-adv-x="928.6"/><glyph glyph-name="star-empty" unicode="6" d="M634 290l171 165-235 35-106 213-105-213-236-35 171-165-41-235 211 111L675 55zm295 199q0-12-15-27L711 265l48-279q1-4 1-12 0-28-23-28-10 0-22 7L464 85 214-47q-13-7-23-7-11 0-17 9t-6 19q0 4 1 12l48 279L14 462Q0 477 0 489q0 21 31 26l280 40 126 254q11 23 27 23t28-23l125-254 280-40q32-5 32-26z" horiz-adv-x="928.6"/><glyph glyph-name="phone" unicode="9" d="M786 158q0-15-6-39t-12-38q-11-28-68-60Q648-7 597-7q-16 0-30 2t-32 7-26 8-31 11-28 10q-54 20-97 47-72 44-148 120T85 346q-27 43-46 97-2 5-10 28t-12 31-8 26-7 32-2 29q0 52 29 104 31 56 59 68 14 6 38 12t39 6q8 0 12-2 10-3 30-43 6-10 16-30t20-35 17-30q2-2 10-14t12-20 4-16q0-11-16-28t-35-30-34-30-16-25q0-5 3-13t4-11 8-14 7-10q42-77 97-132t131-97q1 0 10-6t14-8 11-5 13-2q10 0 25 15t30 35 31 35 28 16q7 0 15-4t20-12 14-10q14-8 30-17t35-20 31-17q39-19 42-29 2-4 2-12z" horiz-adv-x="785.7"/><glyph glyph-name="cubes" unicode="t" d="M357-61L571 46v176l-214-92V-61zm-36 254l226 96-226 97-225-97zM929-61l214 107v176l-214-92V-61zm-36 254l225 96-225 97-226-97zM643 356l214 92v149l-214-92V356zm-36 212l246 105-246 106-246-106zm607-289V46q0-20-10-37t-29-26L925-142q-14-8-32-8t-32 8L611-17q-3 1-4 2-1-1-4-2L353-142q-14-8-32-8t-31 8L40-17Q21-8 11 9T0 46v233q0 21 12 39t32 26l242 104v223q0 22 12 39t31 27l250 107q13 6 28 6t28-6l250-107q20-9 32-27t12-39V448l242-104q20-9 32-26t11-40z" horiz-adv-x="1285.7"/><glyph glyph-name="link" unicode="" d="M812 171q0 23-15 38L681 325q-16 16-38 16-24 0-40-18l10-10 12-12q3-3 9-11t7-14 2-15q0-23-16-38t-38-16q-8 0-15 2t-14 7-11 9-12 12-10 10q-19-17-19-40t16-38L639 53q15-15 38-15 22 0 38 15l82 81q15 16 15 37zM420 565q0 22-15 38L290 718q-16 16-38 16t-38-15l-82-82q-16-15-16-37t16-38l116-116q15-15 38-15t40 17l-11 11-12 12q-3 3-8 10t-7 14-2 16q0 22 15 38t38 15q9 0 16-2t14-7 10-8 12-12 11-11q18 17 18 41zm500-394q0-67-48-113l-82-81q-46-47-113-47-68 0-114 48L448 93q-46 47-46 114 0 68 49 116l-49 49q-48-49-116-49-67 0-114 47L56 486Q9 533 9 600t47 113l82 82q47 46 114 46t114-47l114-116q47-46 47-113 0-69-49-117l49-49q48 49 116 49 67 0 114-47l116-116q47-47 47-114z" horiz-adv-x="928.6"/><glyph glyph-name="camera-1" unicode="" d="M536 475q66 0 113-47t47-114-47-113-113-47-114 47-47 113 47 114 114 47zm393 232q59 0 101-42t41-101V64q0-59-41-101T929-79H143Q84-79 42-37T0 64v500q0 59 42 101t101 42h125l28 76q11 27 39 47t58 20h286q29 0 57-20t39-47l29-76h125zM536 64q103 0 176 74t74 176-74 177-176 73-177-73-73-177 73-176 177-74z" horiz-adv-x="1071.4"/><glyph glyph-name="eye" unicode="" d="M929 314q-85 132-213 197 34-58 34-125 0-104-73-177t-177-73-177 73-73 177q0 67 34 125-128-65-213-197 75-114 187-182t242-68 242 68 187 182zM527 529q0 11-8 19t-19 7q-70 0-120-50t-50-119q0-12 8-19t19-8 19 8 8 19q0 48 34 82t82 34q11 0 19 8t8 19zm473-215q0-19-11-38-78-129-210-206T500-7 221 70 11 276Q0 295 0 314t11 39q78 128 210 205t279 78 279-78 210-205q11-20 11-39z" horiz-adv-x="1000"/><glyph glyph-name="left-open-mini" unicode="" d="M252 180q26-26 0-48-26-26-48 0L12 326q-24 24 0 50l192 194q22 26 48 0 26-22 0-48L96 350z" horiz-adv-x="265"/><glyph glyph-name="right-open-mini" unicode="" d="M13 180l158 170L13 522q-26 26 0 48 26 26 48 0l192-194q24-26 0-50L61 132q-22-26-48 0-26 22 0 48z" horiz-adv-x="265"/><glyph glyph-name="down-open-mini" unicode="" d="M405 470q22 26 48 0 26-22 0-48L257 230q-22-22-48 0L13 422q-26 26 0 48 24 24 50 0l170-156z" horiz-adv-x="466"/><glyph glyph-name="up-open-mini" unicode="" d="M62 230q-26-22-50 0-24 24 0 50l196 190q26 26 48 0l196-190q24-26 0-50-24-22-50 0L232 388z" horiz-adv-x="464"/><glyph glyph-name="paper-plane-empty" unicode="" d="M984 844q19-14 15-36L857-49q-3-16-18-25-8-5-18-5-6 0-13 3L514 44 348-138q-10-12-27-12-7 0-12 2-11 4-17 13t-6 21v252L22 246q-20 7-22 30-2 22 18 33l928 536q20 12 38-1zM794 7l123 739-800-462 187-76 482 356-267-444z" horiz-adv-x="1000"/><glyph glyph-name="window" unicode="" d="M900 750q42 0 71-30t29-70V50q0-42-29-71t-71-29H100q-40 0-70 29T0 50v600q0 40 30 70t70 30h800zm-670-94q-16 0-27-11t-11-25q0-16 11-27t27-11q38 0 38 38 0 16-11 26t-27 10zM92 620q0-16 11-27t27-11q38 0 38 38 0 16-11 26t-27 10-27-11-11-25zM902 50v460H100V50h802zm0 540v60H300v-60h602z" horiz-adv-x="1000"/><glyph glyph-name="mobile" unicode="" d="M480 840q42 0 71-29t29-71V-40q0-40-29-70t-71-30H100q-40 0-70 30T0-40v780q0 42 30 71t70 29h380zM290-100q30 0 50 15t20 35q0 22-20 36T290 0q-28 0-49-15t-21-35 21-35 49-15zM500 50v660H80V50h420z" horiz-adv-x="580"/><glyph glyph-name="monitor" unicode="" d="M900 790q42 0 71-30t29-70V140q0-42-29-77t-69-43L684-24l86-38q50-28-20-28H250q-98 0 32 52l36 14L98 20q-40 8-69 43T0 140v550q0 40 30 70t70 30h800zm0-646v556H100V144h800z" horiz-adv-x="1000"/><glyph glyph-name="login" unicode="" d="M661 350q0-14-11-25L347 21q-11-10-26-10t-25 10-10 25v161H36q-15 0-25 11T0 243v214q0 15 11 25t25 11h250v161q0 14 10 25t25 10 26-10l303-304q11-10 11-25zm196 196V154q0-67-47-114T696-7H518q-7 0-13 5t-5 13q0 2-1 11t0 15 2 13 5 11 12 3h178q37 0 63 27t27 63v392q0 37-27 63t-63 27H516l-6 2-5 3-4 5-1 8q0 2-1 11t0 15 2 13 5 11 12 3h178q67 0 114-47t47-114z" horiz-adv-x="857.1"/><glyph glyph-name="popup" unicode="" d="M700 750q42 0 71-29t29-71V250q0-40-29-70t-71-30H300q-40 0-70 30t-30 70v402q0 40 29 69t71 29h400zm0-500v400H300V250h400zM100 350V50h300V-50H100q-40 0-70 30T0 50v300h100z" horiz-adv-x="800"/><glyph glyph-name="leaf" unicode="" d="M236 646q182 106 506 66 168-22 196-50 4-6-2-10-76-40-130-109t-78-132-65-132-93-105q-138-96-382-4Q122 94 74-6q-12-24-47-7T2 26q44 100 129 193t176 153 176 106 141 68l54 20q-14 0-41-1t-104-14-148-38-162-84T62 288Q40 530 236 646z" horiz-adv-x="940"/><glyph glyph-name="picture" unicode="" d="M856 518H756L632 668 418 518H238q-52 0-90-39t-38-91V228L2 524q-10 38 22 52l680 248q36 10 50-24zm106-90q16 0 27-12t11-28V-84q0-16-11-28t-27-12H238q-16 0-27 12t-11 28v472q0 16 11 28t27 12h724zM906-24v162l-72 160-166-60-130-132-138 170-92-214v-86h598z" horiz-adv-x="1000"/><glyph glyph-name="bath5-1" unicode="" d="M1000 341c0 46-37 82-82 82H138v267c0 31 25 56 56 56h14c15 0 29-6 40-17l-3-2c-41-42-41-109 0-151l14-14c7-6 15-9 23-9s16 3 22 9l139 139c13 13 13 33 0 45l-14 14c-20 20-46 31-75 31-22 0-42-6-60-18-22 23-53 37-86 37h-14c-66 0-120-54-120-120V423c-41-4-74-39-74-82 0-35 22-64 53-76V160c0-93 65-170 153-188l-28-27c-12-13-12-33 0-45 7-6 15-9 23-9s16 3 22 9l69 68h416l69-68c6-6 14-9 22-9s17 3 23 9c12 12 12 32 0 45l-27 27c87 18 153 95 153 188v105c30 12 52 41 52 76zM354 728c7 0 15-2 21-5l-92-92c-9 16-7 37 7 51l34 33c8 8 19 13 30 13zM82 360h836c10 0 18-9 18-19s-8-18-18-18H82c-10 0-18 8-18 18s8 19 18 19zm802-200c0-71-58-128-128-128H244c-70 0-128 57-128 128v98h768v-98zM403 488c3-3 7-4 11-4s8 1 11 4c6 6 6 16 0 22l-16 16c-6 6-16 6-22 0s-6-16 0-22l16-16zm46 16l16-16c3-3 7-4 11-4s8 1 11 4c6 6 6 16 0 22l-16 16c-6 6-16 6-22 0s-6-16 0-22zm-55 68l-16 16c-6 6-16 6-22 0s-6-16 0-22l16-16c3-3 7-4 11-4s8 1 11 4c6 6 6 16 0 22zm46 16c-6 6-16 6-22 0s-6-16 0-22l16-16c3-3 7-4 11-4s8 1 11 4c6 6 6 16 0 22l-16 16zm-23 63c-6-6-6-16 0-22l16-16c3-3 7-4 11-4s8 1 11 4c6 6 6 16 0 22l-16 16c-6 6-16 6-22 0zm76-82c3-3 7-5 11-5s8 2 11 5c6 6 6 16 0 22l-16 15c-6 6-15 6-21 0s-6-16 0-22l15-15z" horiz-adv-x="1000"/><glyph glyph-name="profile" unicode="" d="M500 194c129 0 234 133 234 297S629 788 500 788 266 654 266 491s105-297 234-297zm0 531c93 0 172-107 172-234s-79-235-172-235-172 108-172 235 79 234 172 234zM64 141L2-46c-4-10-2-20 4-29 6-8 15-13 25-13h938c10 0 19 5 25 13 6 9 8 19 4 29l-62 187c-3 10-11 18-21 20l-219 63c-7 2-15 1-22-2l-174-87-173 87c-7 3-15 4-23 2L85 161c-10-2-18-10-21-20zm245 19l177-88c9-4 19-4 28 0l177 88 191-54 43-131H75l43 131 191 54z" horiz-adv-x="1000"/><glyph glyph-name="bath5" unicode="" d="M1000 341c0 46-37 82-82 82H138v267c0 31 25 56 56 56h14c15 0 29-6 40-17l-3-2c-41-42-41-109 0-151l14-14c7-6 15-9 23-9s16 3 22 9l139 139c13 13 13 33 0 45l-14 14c-20 20-46 31-75 31-22 0-42-6-60-18-22 23-53 37-86 37h-14c-66 0-120-54-120-120V423c-41-4-74-39-74-82 0-35 22-64 53-76V160c0-93 65-170 153-188l-28-27c-12-13-12-33 0-45 7-6 15-9 23-9s16 3 22 9l69 68h416l69-68c6-6 14-9 22-9s17 3 23 9c12 12 12 32 0 45l-27 27c87 18 153 95 153 188v105c30 12 52 41 52 76zM354 728c7 0 15-2 21-5l-92-92c-9 16-7 37 7 51l34 33c8 8 19 13 30 13zM82 360h836c10 0 18-9 18-19s-8-18-18-18H82c-10 0-18 8-18 18s8 19 18 19zm802-200c0-71-58-128-128-128H244c-70 0-128 57-128 128v98h768v-98zM403 488c3-3 7-4 11-4s8 1 11 4c6 6 6 16 0 22l-16 16c-6 6-16 6-22 0s-6-16 0-22l16-16zm46 16l16-16c3-3 7-4 11-4s8 1 11 4c6 6 6 16 0 22l-16 16c-6 6-16 6-22 0s-6-16 0-22zm-55 68l-16 16c-6 6-16 6-22 0s-6-16 0-22l16-16c3-3 7-4 11-4s8 1 11 4c6 6 6 16 0 22zm46 16c-6 6-16 6-22 0s-6-16 0-22l16-16c3-3 7-4 11-4s8 1 11 4c6 6 6 16 0 22l-16 16zm-23 63c-6-6-6-16 0-22l16-16c3-3 7-4 11-4s8 1 11 4c6 6 6 16 0 22l-16 16c-6 6-16 6-22 0zm76-82c3-3 7-5 11-5s8 2 11 5c6 6 6 16 0 22l-16 15c-6 6-15 6-21 0s-6-16 0-22l15-15z" horiz-adv-x="1000"/><glyph glyph-name="comment-2" unicode="" d="M0 413q0 156 147 265t353 109 354-109 146-266-146-265T500 37q-47 0-96 8-29-35-89-78T193-88h-9q-12 0-20 8t-8 20q0 6 2 12 0 1 13 21t18 29 13 30 13 36 4 32v2Q117 155 59 236T0 412zm63 0q0-75 48-143t137-111q33-18 33-57v-6q0-41-21-92 60 37 95 80 18 24 49 24 4 0 8-2 45-6 88-6 182 0 310 92t127 221-127 220-310 92-310-92T63 413zm93 0q0 89 102 154t242 64q16 0 16-15t-16-16q-125 0-219-57t-93-131q0-15-16-15t-16 15z" horiz-adv-x="1000"/><glyph glyph-name="cancel" unicode="" d="M452 194q18-18 18-43t-18-43q-18-16-43-16t-43 16L234 260 102 108Q84 92 59 92t-43 16Q0 126 0 151t16 43l138 156L16 508Q0 526 0 551t16 43q18 16 43 16t43-16l132-152 132 152q18 16 43 16t43-16q18-18 18-43t-18-43L314 350z" horiz-adv-x="470"/><glyph glyph-name="globe" unicode="" d="M0 366q0 201 142 342t342 142 343-142 142-342T827 23 484-119 142 23 0 366zm63-16q7-166 125-283 52 37 109 60-43 106-47 223H63zm0 31h187q4 104 37 196-62 25-117 68Q68 532 63 381zm128 287q51-39 108-62 43 101 117 176-131-22-225-114zm20-623q88-76 205-95-64 64-105 148-53-19-100-53zm70 305q4-111 45-213 69 22 143 26v187H281zm0 31h188v157q-78 3-153 29-31-88-35-186zm47 215q69-23 141-27v218h-2q-90-76-139-191zm12-486Q389 10 467-56h2v187q-69-4-129-21zM500-56h2q78 66 127 166-61 17-129 21V-56zm0 219q74-4 143-26 41 102 45 213H500V163zm0 218h188q-4 98-36 186-74-26-152-29V381zm0 188q72 4 141 27-49 115-139 191h-2V569zm53-619q117 19 205 95-47 34-100 53-41-84-105-148zm0 832q74-75 117-176 57 23 107 62-93 92-224 114zm119-655q57-23 109-60 117 117 125 283H719q-4-117-47-223zm10 450q33-92 37-196h187q-6 151-107 264-55-43-117-68z" horiz-adv-x="969"/><glyph glyph-name="skype-1" unicode="" d="M920 281q18-52 18-103 0-129-89-221-90-92-216-92-58 0-113 22-19-2-46-2-188 0-321 135Q20 156 20 346q0 29 4 57Q0 458 0 525q0 128 88 218 90 92 217 92 68 0 126-27 14 1 43 1 187 0 320-136 131-138 131-327 0-20-5-65zM473 101q88 0 145 40t57 114q0 69-52 106-32 19-60 29-7 1-104 26-53 13-69 34-9 9-9 20 0 23 26 36t57 14q66 0 89-54 10-16 13-21t13-11 25-6q20 0 35 15t15 36q0 40-44 79-52 41-140 41-82 0-137-35t-55-103q0-42 23-72t58-44q40-17 92-29 30-6 64-15 50-18 50-56 0-30-29-46t-67-16q-56 0-79 31-16 31-21 36-14 43-51 43-22 0-36-14t-14-34q0-35 23-67t55-49q53-28 127-28z" horiz-adv-x="938"/><glyph glyph-name="volume-off" unicode="" d="M460 727V-27L226 207H0v286h226z" horiz-adv-x="460"/><glyph glyph-name="vimeo" unicode="" d="M725 518q-26-153-137-285Q478 101 388 40q-53-26-93-1-39 24-61 69-13 23-62 193t-59 182q-9 16-41 1t-43-26L0 495l33 39q38 41 91 82t94 49q55 11 81-54 16-37 31-135 3-18 14-63 36-152 57-152 32 0 103 135 32 62 4 102t-90 1q10 62 53 106 82 86 177 64 100-19 77-151z" horiz-adv-x="729"/><glyph glyph-name="pinterest" unicode="" d="M331 754q129 0 212-79t82-186q0-139-70-229t-180-90q-36 0-69 18t-45 41q-26-107-32-127-20-73-84-153-7-7-10 3-15 106 1 176l59 254q-15 28-15 72 0 51 26 86t64 34q30 0 46-19t17-50q0-18-7-45t-18-63-17-57q-8-36 14-63t60-27q64 0 105 73t41 175q0 79-50 128t-142 49q-103 0-166-65T90 453q0-54 31-91 10-13 7-25-2-3-4-14t-3-15-5-13-8-8-13 1Q0 327 0 464q0 110 89 200t242 90z" horiz-adv-x="625"/><glyph glyph-name="check" unicode="" d="M249 0q-34 0-56 28L13 264q-16 24-12 52t26 46 51 14 47-28l118-154 296 474q16 24 43 30t53-8q24-16 30-43t-8-53L307 34Q287 2 251 2z" horiz-adv-x="667"/><glyph glyph-name="building" unicode="" d="M214 118V82q0-7-5-12t-13-6h-35q-7 0-13 6t-5 12v36q0 7 5 12t13 6h35q8 0 13-6t5-12zm0 143v-36q0-7-5-13t-13-5h-35q-7 0-13 5t-5 13v36q0 7 5 12t13 6h35q8 0 13-6t5-12zm143 0v-36q0-7-5-13t-13-5h-35q-8 0-13 5t-5 13v36q0 7 5 12t13 6h35q8 0 13-6t5-12zM214 404v-36q0-7-5-13t-13-5h-35q-7 0-13 5t-5 13v36q0 7 5 12t13 5h35q8 0 13-5t5-12zm429-286V82q0-7-5-12t-13-6h-36q-7 0-12 6t-6 12v36q0 7 6 12t12 6h36q7 0 13-6t5-12zM500 261v-36q0-7-5-13t-13-5h-36q-7 0-12 5t-5 13v36q0 7 5 12t12 6h36q7 0 13-6t5-12zM357 404v-36q0-7-5-13t-13-5h-35q-8 0-13 5t-5 13v36q0 7 5 12t13 5h35q8 0 13-5t5-12zM214 546v-35q0-8-5-13t-13-5h-35q-7 0-13 5t-5 13v35q0 8 5 13t13 5h35q8 0 13-5t5-13zm429-285v-36q0-7-5-13t-13-5h-36q-7 0-12 5t-6 13v36q0 7 6 12t12 6h36q7 0 13-6t5-12zM500 404v-36q0-7-5-13t-13-5h-36q-7 0-12 5t-5 13v36q0 7 5 12t12 5h36q7 0 13-5t5-12zM357 546v-35q0-8-5-13t-13-5h-35q-8 0-13 5t-5 13v35q0 8 5 13t13 5h35q8 0 13-5t5-13zM214 689v-35q0-8-5-13t-13-5h-35q-7 0-13 5t-5 13v35q0 8 5 13t13 5h35q8 0 13-5t5-13zm429-285v-36q0-7-5-13t-13-5h-36q-7 0-12 5t-6 13v36q0 7 6 12t12 5h36q7 0 13-5t5-12zM500 546v-35q0-8-5-13t-13-5h-36q-7 0-12 5t-5 13v35q0 8 5 13t12 5h36q7 0 13-5t5-13zM357 689v-35q0-8-5-13t-13-5h-35q-8 0-13 5t-5 13v35q0 8 5 13t13 5h35q8 0 13-5t5-13zm286-143v-35q0-8-5-13t-13-5h-36q-7 0-12 5t-6 13v35q0 8 6 13t12 5h36q7 0 13-5t5-13zM500 689v-35q0-8-5-13t-13-5h-36q-7 0-12 5t-5 13v35q0 8 5 13t12 5h36q7 0 13-5t5-13zm143 0v-35q0-8-5-13t-13-5h-36q-7 0-12 5t-6 13v35q0 8 6 13t12 5h36q7 0 13-5t5-13zM500-79h214v858H71V-79h215V46q0 8 5 13t13 5h178q7 0 13-5t5-13V-79zm286 893v-928q0-15-11-25t-25-11H36q-15 0-25 11T0-114v928q0 15 11 25t25 11h714q15 0 25-11t11-25z" horiz-adv-x="785.7"/><glyph glyph-name="plus55" unicode="" d="M1000 400V300H550v-450H450v450H0v100h450v450h100V400h450z" horiz-adv-x="1000"/><glyph glyph-name="mail" unicode="" d="M929 11v428q-18-20-39-37-149-114-238-188-28-24-46-38t-48-27-57-13h-2q-26 0-57 13t-48 27-46 38q-88 74-238 188-21 17-39 37V11q0-8 6-13t12-5h822q7 0 12 5t6 13zm0 586v14l-1 7-1 7-3 5-5 4-8 2H89q-7 0-12-6t-6-12q0-94 82-159 108-85 224-177 4-2 20-16t25-21 25-18 28-15 24-5h2q11 0 24 5t28 15 25 18 25 21 20 16q116 92 224 177 30 24 56 65t26 73zm71 21V11q0-37-26-63t-63-27H89q-36 0-63 27T0 11v607q0 37 26 63t63 26h822q37 0 63-26t26-63z" horiz-adv-x="1000"/><glyph glyph-name="skype" unicode="" d="M655 257q0 28-11 51t-27 38-41 27-46 19-49 13l-58 14q-17 4-25 6t-19 6-17 9-9 12-4 16q0 43 80 43 24 0 43-6t30-16 21-19 23-16 27-7q26 0 42 18t16 43q0 31-32 55t-79 38-101 13q-38 0-74-9t-67-26-49-48-19-72q0-34 10-60t32-42 44-27 58-18l81-20q51-12 63-20 18-11 18-34 0-21-23-36t-58-14q-29 0-51 9t-37 22-25 25-26 21-30 9q-28 0-42-17t-14-41q0-52 68-88t162-37q41 0 78 10t69 30 49 52 19 74zm202-121q0-89-63-152T643-79q-73 0-131 45-43-9-83-9-80 0-153 31T150 72 67 197 36 350q0 41 9 84Q0 492 0 564q0 89 63 152t151 63q73 0 131-45 43 9 84 9 79 0 152-31t126-84 83-125 31-153q0-41-9-84 45-58 45-130z" horiz-adv-x="857.1"/><glyph glyph-name="gplus" unicode="" d="M410 406q0-20 18-40t43-37 51-41 43-59 18-79q0-50-27-96-40-68-118-101T272-79q-74 0-138 24T39 21Q18 55 18 94q0 46 25 84t66 64q73 46 225 56-18 24-26 41t-9 41q0 20 12 48-26-3-38-3-83 0-139 54T77 616q0 45 20 88t55 73q43 37 102 55t122 18h233l-77-49h-73q41-35 62-74t21-90q0-40-13-72t-33-52-39-36-33-34-14-37zm-81 53q21 0 43 10t37 24q30 32 30 89 0 32-10 69t-27 73-47 57-65 23q-24 0-46-11t-37-29q-26-33-26-89 0-26 5-55t18-57 29-52 42-37 54-15zm1-487q32 0 62 7t55 22 41 41 15 61q0 14-4 27t-8 24-15 23-16 19-22 20-20 16-23 16-21 15q-8 1-26 1-30 0-59-4t-60-14-54-25-38-42-15-59q0-39 19-69t51-46 67-25 71-8zm452 489h119v-60H782V279h-59v122H605v60h118v121h59V461z" horiz-adv-x="928.6"/><glyph glyph-name="instagramm" unicode="" d="M760 54v362h-75q11-35 11-73 0-71-36-130t-97-94-134-35q-110 0-188 76t-78 183q0 38 11 73H95V54q0-14 10-24t25-10h596q14 0 24 10t10 24zM602 352q0 69-51 118t-122 49q-71 0-121-49t-51-118 51-118 121-49q72 0 122 49t51 118zm158 201v92q0 15-11 27t-27 11h-98q-16 0-27-11t-11-27v-92q0-17 11-28t27-11h98q16 0 27 11t11 28zm97 116V31q0-45-32-77t-78-33H110q-45 0-78 33T0 31v638q0 45 32 77t78 33h637q45 0 78-33t32-77z" horiz-adv-x="857.1"/><glyph glyph-name="linkedin" unicode="" d="M195 501V-52H11v553h184zm12 171q0-41-29-68t-75-27h-1q-46 0-74 27T0 672q0 41 29 68t75 27 74-27 29-68zm650-407V-52H674v296q0 59-23 92t-71 33q-35 0-58-19t-36-48q-6-17-6-45V-52H296q1 223 1 361t0 165l-1 27h184v-80h-1q11 18 23 31t31 29 49 24 64 9q95 0 153-63t58-186z" horiz-adv-x="857.1"/><glyph glyph-name="home" unicode="" d="M786 296V29q0-15-11-26T750-7H536v214H393V-7H179q-15 0-25 10t-11 26v271l321 264 321-264q1-1 1-4zm124 39l-34-41q-5-5-12-6h-2q-7 0-12 3L464 613 78 291q-7-4-13-4-7 2-12 7l-35 41q-4 5-3 13t6 12l401 334q18 15 42 15t43-15l136-114v109q0 8 5 13t13 5h107q8 0 13-5t5-13V462l122-102q5-5 6-12t-4-13z" horiz-adv-x="928.6"/><glyph glyph-name="twitter" unicode="" d="M904 622q-37-54-90-93v-23q0-73-21-145t-64-139-103-117-144-82T301-7Q150-7 25 74q19-3 43-3 126 0 224 77-59 2-105 36t-64 89q19-2 34-2 24 0 48 6-63 13-104 62T60 454v2q38-21 82-23-37 25-59 64t-22 86q0 49 25 91 68-83 164-133t208-55q-5 21-5 41 0 75 53 127t127 53q79 0 132-57 61 12 114 44-20-64-79-100 52 6 104 28z" horiz-adv-x="928.6"/><glyph glyph-name="facebook" unicode="" d="M535 843V696h-87q-48 0-65-20t-17-60V510h164l-22-165H366V-79H195v424H53v165h142v122q0 104 58 161t155 57q82 0 127-7z" horiz-adv-x="571.4"/><glyph glyph-name="search" unicode="" d="M772 78q30-34 6-62l-46-46q-36-32-68 0L474 160q-74-42-156-42-128 0-223 95T0 436t90 219 218 91 224-95 96-223q0-88-46-162zM94 436q0-88 68-156t156-68 151 63 63 153q0 88-68 155t-156 67-151-63-63-151z" horiz-adv-x="789"/><glyph glyph-name="arrows-ccw" unicode="" d="M186 140l116 116V-36L26-20l88 86Q-2 188 0 356t120 288q100 100 240 116l4-102q-100-16-172-88-88-88-90-213t84-217zm332 598l276-16-88-86q116-122 114-290T700 58Q604-40 460-60l-2 104q98 16 170 88 88 88 90 213t-84 217L520 446z" horiz-adv-x="820"/><glyph glyph-name="desktop" unicode="" d="M0 100v625q0 39 27 66t67 28h812q39 0 67-28t27-66V100q0-39-27-66T906 6H594v-37l195-25q23-6 23-32 0-13-8-22t-23-9H219q-14 0-23 9t-8 22q0 26 23 32l195 25V6H94Q55 6 27 34T0 100zm63 0q0-14 8-22t23-9h812q14 0 23 9t8 22v625q0 14-8 22t-23 9H94q-14 0-23-9t-8-22V100zm62 125v437q0 14 9 23t22 9h688q13 0 22-9t9-23V225q0-14-9-22t-22-9H156q-13 0-22 9t-9 22zm31 0h688v437H156V225z" horiz-adv-x="1000"/><glyph glyph-name="edit" unicode="" d="M496 189l64 65-85 85-64-65v-31h53v-54h32zm245 402q-9 9-18 0L527 395q-9-9 0-18t18 0l196 196q9 9 0 18zm45-331V154q0-67-47-114T625-7H161Q94-7 47 40T0 154v464q0 66 47 113t114 48h464q35 0 65-14 9-4 10-13 2-10-5-16l-27-28q-8-8-18-4-13 3-25 3H161q-37 0-63-26t-27-63V154q0-37 27-63t63-27h464q37 0 63 27t26 63v70q0 7 5 12l36 36q8 8 20 4t11-16zm-54 411l161-160-375-375H357v160zm248-73l-51-52-161 161 51 51q16 16 38 16t38-16l85-84q16-16 16-38t-16-38z" horiz-adv-x="1000"/><glyph glyph-name="globe-1" unicode="" d="M429 779q116 0 215-58t156-156 57-215-57-215T644-21 429-79 213-21 58 135 0 350t58 215 155 156 216 58zm152-291l-5-5q-4-4-7-6 1 0 2 3t3 6 2 4q3 4 12 8 8 4 29 7 19 5 29-6-1 1 5 7t8 7q2 1 8 2t9 5l1 12q-7-1-10 4t-3 12q0-2-4-5 0 4-2 5t-7-1-5-1q-5 2-8 5t-5 9-2 8q-1 3-5 6t-5 6q-1 1-2 3t-2 4-2 3-3 1-4-3-4-5-2-3q-2 1-4 1t-2-1-3-2-3-2q-1-1-4-1t-5-1q8 3-1 6-5 2-9 1 5 3 5 7t-5 8h3q-1 2-5 5t-10 4-7 4q-5 3-19 5t-18 0q-3-3-3-5t2-8 2-7q1-4-3-7t-3-7q0-4 7-9t6-12q-2-4-9-9t-9-6q-3-5-1-11t6-9q1-1 1-2t-2-3-3-2-4-2l-1-1q-7-3-12 3t-7 15q-4 14-9 17-13 4-17-1-2 7-22 15-14 5-33 2 4 0 0 8-4 9-10 7 1 3 2 10t0 7q2 7 7 13 1 1 4 5t5 7 1 4q19-3 28 6 2 2 6 9t6 10q5 3 8 3t8-3 8-3q8-1 8 6t-4 11q7 0 2 10-3 4-5 5-6 2-15-3-4-2 2-4-1 0-6-6t-9-10-9 3l-3 7q-3 7-5 8-5 0-9-9 1 5-6 9t-14 4q11 7-4 15-4 3-12 3t-11-2q-2-4-3-7t3-4 6-3 6-2 5-2q8-6 5-8-1 0-5-2t-6-2-4-3q-2-2 0-7t-1-8q-3 3-5 10t-4 9q4-5-14-4l-5 1q-3 0-9-1t-12-1-7 5q-3 4 0 11 0 2 2 1-2 2-6 5t-6 5q-25-8-52-23 3 0 6 1t8 3 5 4q19 7 24 3l3 3q7-9 11-14-4 3-17 1-11-4-12-7 4-7 2-10l-6 6q-4 4-8 6t-8 3q-9 0-13-1-81-45-131-124 4-4 7-4 2-1 3-5t1-6 6 1q5-4 2-10 1 0 25-15 10-10 11-12 2-6-5-10l-5 5q-4 4-5 2-2-3 0-10t6-7q-4 0-5-9t-2-20 0-13l1-1q-2-6 3-19t12-11q-7-1 11-24 3-4 4-5 2-1 7-4t9-6 5-5q2-3 6-13t8-13q-2-3 5-11t6-13q-1 0-2-1t-1 0q2-4 9-8t8-7q1-2 1-6t2-6 4-1q2 11-13 34-8 14-9 17-2 2-4 8t-2 8h3q2 0 5-2t4-3 1-1q-1-4 1-10t7-10 10-11 6-7q4-4 8-11t0-8q5 0 11-5t10-11q3-5 4-15t3-13q1-4 5-8t7-5l9-5 7-3q3-2 10-6t12-7q6-2 9-2t8 1 8 2q8 1 16-8t12-12q20-10 30-6-1 0 1-4t4-9 5-8 3-5q3-3 10-8t10-8q4 2 4 5-1-5 4-11t10-6q8 2 8 18-17-9-27 10l-2 3q-2 3-2 5t-1 4 0 5 2 1q5 0 6 2t-1 7-2 8q-1 4-6 11t-7 8q-3-5-9-4t-9 5q0-1-1-3t-1-4h-8q1 2 1 10t2 13l3 6q2 4 5 9t2 7-3 5-9 1q-11 0-15-11-1-2-2-6t-2-6-5-4q-4-2-14-1t-13 3q-8 4-13 16t-5 20q0 6 1 15t2 14-3 14q2 1 5 5t5 6q2 1 3 1t2 0 3 1 1 3q0 1-2 2l-2 1q4-1 16 1t15-1q9-6 12 1 0 1-1 6t0 7q3-15 16-5 2-1 9-3t9-2q2-1 4-3t3-3 3 0 5 4q5-8 7-13 6-23 10-25t6-1 3 5 0 8-1 7l-1 4v15q-8 2-10 7t0 10 9 10q0 1 4 2t9 4 7 4q12 11 8 20 4 0 6 5l-2 2q-2 2-5 2t-2 2q5 2 1 8 3 2 4 7t4 5q5-7 12-1 4 5 1 9 2 4 11 6t10 5q4-1 5 1t0 7 2 7q2 2 8 5t8 2l9 7q2 2 0 2 10-1 18 6 5 6-4 11 2 3-2 5t-8 3q2 1 7 1t5 1q9 5-4 9-9 2-24-7zM491-2q114 21 195 106-1 2-7 2t-7 2q-10 4-13 5 1 4-1 7t-5 5-7 5-6 4q-1 1-4 3t-4 3-4 2-5 2-5-1l-2-1q-2 0-3-1t-3-2-2-1 0-2q-12 10-20 13-3 0-7 3t-5 4-6 0-6-4q-3-2-4-8t-1-7q-4 3 0 10t1 10q-1 3-6 2t-6-2-7-5-5-3-4-3-5-5q-2-2-4-6t-2-7q-1 3-7 4t-5 3q1-5 2-19t3-22q4-17-7-26-15-14-16-23-2-12 7-14 0-4-5-12t-4-12q0-3 2-9z" horiz-adv-x="857.1"/><glyph glyph-name="file-image" unicode="" d="M819 638q16-16 27-42t11-50V-96q0-23-15-38t-38-16H54q-23 0-38 16T0-96v892q0 23 16 38t38 16h500q22 0 49-11t42-27zM571 774V564h210q-5 16-12 23L594 762q-6 7-23 12zM786-79v572H554q-23 0-38 15t-16 38v233H71V-79h715zm-72 250V-7H143v107l107 107 71-71 215 214zM250 279q-45 0-76 31t-31 76 31 76 76 31 76-31 31-76-31-76-76-31z" horiz-adv-x="857.1"/><glyph glyph-name="leaf-1" unicode="" d="M714 457q0 15-10 25t-25 11q-96 0-178-28t-145-75-131-122q-11-12-11-25 0-15 11-25t25-11q13 0 25 11 15 13 41 39t38 37q76 69 150 98t175 29q14 0 25 11t10 25zm286 111q0-53-11-108-26-125-103-214T686 97Q567 36 442 36q-83 0-160 27-8 2-49 23t-53 21q-9 0-22-18t-25-39-30-39T70-7Q53-7 41-1T24 12 9 36l-3 6-3 6q-1 2-2 5t-1 7q0 20 17 41t38 37 38 31 18 27q0 2-8 21t-9 25q-5 28-5 58 0 64 24 123t66 103 96 77 113 53q31 10 81 15t100 5 100 3 91 13 64 32l16 16 17 16 15 11 20 9 24 3q22 0 40-26t26-63 14-69 4-53z" horiz-adv-x="1000"/><glyph glyph-name="ok" unicode="" d="M932 534q0-22-15-38L513 92l-76-76Q421 1 399 1t-38 15l-76 76L83 294q-15 16-15 38t15 38l76 76q16 16 38 16t38-16l164-165 366 367q16 16 38 16t38-16l76-76q15-16 15-38z" horiz-adv-x="1000"/><glyph glyph-name="cancel-1" unicode="" d="M724 112q0-22-15-38L633-2q-16-15-38-15T557-2L393 163 229-2q-16-15-38-15T153-2L77 74q-16 16-16 38t16 38l164 164L77 478q-16 16-16 38t16 38l76 76q16 16 38 16t38-16l164-164 164 164q16 16 38 16t38-16l76-76q15-15 15-38t-15-38L545 314l164-164q15-15 15-38z" horiz-adv-x="785.7"/><glyph glyph-name="shopping" unicode="" d="M275 44c45 0 80-36 80-81s-35-80-80-80-80 36-80 80c0 45 36 81 80 81zm262 0c44 0 80-36 80-81s-36-80-80-80-80 36-80 80c0 45 36 81 80 81zm459 755c-9 23-36 34-59 25l-168-68c-4-1-7-4-10-6-12-6-22-17-25-31l-24-121c-3 1-6 1-10 1H89c-48 0-87-41-87-91v-10l112-327c14-49 45-81 89-81h428c41 0 76 31 84 72 2 3 3 6 4 10l115 512 137 55c23 10 35 36 25 60zM664 365l-38-181v-2H215l-7 9L98 508h594l-28-143z" horiz-adv-x="1000"/><glyph glyph-name="info-1" unicode="" d="M357 100V29q0-15-10-25T321-7H36Q21-7 11 4T0 29v71q0 15 11 25t25 11h35v214H36q-15 0-25 11T0 386v71q0 15 11 25t25 11h214q15 0 25-11t11-25V136h35q15 0 26-11t10-25zm-71 643V636q0-15-11-25t-25-11H107q-14 0-25 11t-11 25v107q0 14 11 25t25 11h143q15 0 25-11t11-25z" horiz-adv-x="357.1"/><glyph glyph-name="tint" unicode="" d="M286 207q0 20-11 39-1 0-9 12t-14 21-14 25-12 28q-2 9-12 9t-11-9q-4-13-12-28t-14-25-14-21-9-12q-11-19-11-39 0-29 21-50t50-21 51 21 21 50zm285 72q0-119-83-202T286-7 84 77 0 279q0 81 45 153 4 5 35 51t56 84 56 99 46 112q5 17 19 27t29 9 28-9 19-27q16-51 46-112t56-99 56-85 35-50q45-71 45-154z" horiz-adv-x="571.4"/><glyph glyph-name="feather" unicode="" d="M60-138q-6-20-26-8-18 8-16 34 4 100 50 226-100 154-52 316 10-32 32-78t44-80 32-30q8 4 0 83t-11 166 25 157q22 44 80 94t104 70q-24-46-33-94t-4-78 21-32q12 0 84 120t106 122q46 4 114-29t82-65q12-24 0-79t-40-83q-44-44-146-62t-114-24q-16-10 12-34 54-48 176-20-56-80-136-114t-132-38-54-10q-4-24 49-54t101-14q-30-56-63-84t-54-35-76-11-85-8z" horiz-adv-x="698"/><glyph glyph-name="comment" unicode="" d="M1000 350q0-97-67-179T751 41 500-7q-39 0-81 4-110-97-257-135-27-8-63-12-10-1-17 5t-10 16v1q-2 2 0 6t1 6 2 5l4 5 4 5 4 5q4 5 17 19t20 22 17 22 18 28 15 33 15 42q-88 50-138 123T0 350q0 73 40 139t106 114 160 76 194 28q136 0 251-48t182-130 67-179z" horiz-adv-x="1000"/><glyph glyph-name="cog" unicode="" d="M0 307v86q0 21 15 39t36 22l96 19q5 20 15 41l-53 80q-13 20-10 42t18 38l59 59q19 19 45 19 19 0 35-11l80-53q21 10 41 16l20 95q3 22 21 36t39 15h86q21 0 39-15t22-36l19-95q20-6 41-16l80 53q16 11 35 11 26 0 45-19l59-59q17-15 19-38t-11-42l-53-80q10-22 16-41l95-20q22-3 36-21t15-39v-86q0-22-15-39t-36-22l-95-19q-6-20-16-41l53-80q13-20 11-42t-19-38l-59-59q-19-19-45-19-19 0-35 11l-80 53Q643 2 623-4l-19-95q-4-22-22-36t-39-15h-86q-21 0-39 14t-21 37L377-4q-20 6-41 16l-80-53q-16-11-35-11-26 0-45 19l-59 59q-15 15-18 38t10 42l53 80q-10 21-15 41l-96 19q-22 4-36 22T0 307zm63 0l95-19q35-6 47-40 6-17 14-35 15-31-4-60l-55-82 61-61 82 55q15 10 33 10 16 0 27-6 18-8 35-14 34-12 40-47l19-96h86l20 96q5 35 39 47 17 6 35 14 11 6 27 6 18 0 33-10l82-55 61 61-55 82q-19 29-4 60 8 18 14 35 12 34 47 40l95 19v86l-95 20q-35 5-47 39-6 17-14 35-15 31 4 60l55 82-61 61-82-55q-15-10-33-10-16 0-27 6-18 8-35 14-34 12-39 47l-20 95h-86l-19-95q-6-35-40-47-17-6-35-14-11-6-27-6-18 0-33 10l-82 55-61-61 55-82q19-29 4-60-8-18-14-35-12-34-47-39l-95-20v-86zm218 43q0 90 65 154t154 65 154-65 65-154-65-154-154-65-154 65-65 154zm28 0q0-80 55-136t136-55 136 55 55 136-55 136-136 55-136-55-55-136zm66 0q0 53 36 89t89 36 89-37 36-89-36-88-89-36-89 36-36 89zm31 0q0-39 28-66t66-28 66 28 28 66-28 66-66 28-66-28-28-66z" horiz-adv-x="1000"/><glyph glyph-name="doc" unicode="" d="M0-25v625q0 39 27 66t67 28h31v62q0 39 27 67t67 27h687q39 0 67-27t27-67V-25q0-53-36-89t-89-36H125q-53 0-89 36T0-25zm63 0q0-25 18-44t44-19h750q25 0 44 19t18 44v781q0 14-8 23t-23 8H219q-14 0-23-8t-8-23V6q0-13-9-22t-23-9-22 9-9 22v625H94q-14 0-23-9t-8-22V-25zM250-9q0 15 16 15h250q15 0 15-15t-15-16H266q-16 0-16 16zm0 93q0 16 16 16h250q15 0 15-16t-15-15H266q-16 0-16 15zm0 94q0 16 16 16h250q15 0 15-16 0-6-5-11t-10-4H266q-16 0-16 15zm0 94q0 16 16 16h593q16 0 16-16t-16-16H266q-16 0-16 16zm0 94q0 15 16 15h593q16 0 16-15t-16-16H266q-16 0-16 16zm0 109v219q0 13 9 22t22 9h219q14 0 22-9t9-22V475q0-14-9-22t-22-9H281q-13 0-22 9t-9 22zm63 31h156v156H313V506zM594-9q0 15 15 15h250q16 0 16-15t-16-16H609q-15 0-15 16zm0 93q0 16 15 16h250q16 0 16-16t-16-15H609q-15 0-15 15zm0 94q0 16 15 16h250q16 0 16-16 0-6-5-11t-11-5H609q-15 0-15 16zm0 281q0 16 15 16h250q16 0 16-16t-16-15H609q-15 0-15 15zm0 94q0 16 15 16h250q16 0 16-16t-16-16H609q-15 0-15 16zm0 94q0 15 15 15h250q16 0 16-15t-16-16H609q-15 0-15 16z" horiz-adv-x="1000"/><glyph glyph-name="location" unicode="" d="M0 475q0 156 109 266t266 109 266-109 109-266q0-78-28-160t-85-166T536 8 426-125q-20-25-49-25h-4q-29 0-49 25Q258-48 214 8T113 149 28 315 0 475zm63 0q0-72 28-150t85-161 95-128T371-84h2q2-2 2-4l4 4q62 73 100 120t94 128 86 161 29 150q0 129-92 221t-221 91-221-91-91-221zm125 8q0 78 54 133t133 54 133-54 55-133-55-133-133-55-133 55-54 133zm31 0q0-65 46-111t110-45 110 45 46 111-46 110-110 46-110-46-46-110z" horiz-adv-x="750"/><glyph glyph-name="chat-empty" unicode="" d="M393 636q-85 0-160-29t-118-79-44-107q0-45 30-88t83-73l54-32-19-46q19 11 34 21l25 18 30-6q43-8 85-8 85 0 159 29t118 79 44 106-44 107-118 79-159 29zm0 71q106 0 197-38t143-104 53-144-53-143-143-104-197-38q-48 0-98 9-70-49-155-72-21-5-48-9h-2q-6 0-12 5t-6 12q-1 1-1 3t1 4 1 3l1 3 2 3 2 3 3 3 2 2q3 3 13 14t15 16 12 17 14 21 11 25q-69 40-108 98T0 421q0 78 53 144t143 104 197 38zM852 55q5-14 11-25t14-21 13-16 14-17 13-14l2-2 3-3q1-1 2-3t2-3l1-3 1-3 1-4-1-3q-2-8-7-13t-13-4q-27 4-48 9-85 23-155 72-50-9-98-9-151 0-263 74 32-3 49-3 90 0 172 25t148 72q69 52 107 119t37 141q0 43-13 85 72-39 114-99t42-128q0-67-40-126T852 55z" horiz-adv-x="1000"/><glyph glyph-name="building-filled" unicode="" d="M750 850q15 0 25-11t11-25v-928q0-15-11-25t-25-11H36q-15 0-25 11T0-114v928q0 15 11 25t25 11h714zM286 689v-35q0-8 5-13t13-5h35q8 0 13 5t5 13v35q0 8-5 13t-13 5h-35q-8 0-13-5t-5-13zm0-143v-35q0-8 5-13t13-5h35q8 0 13 5t5 13v35q0 8-5 13t-13 5h-35q-8 0-13-5t-5-13zm0-143v-35q0-8 5-13t13-5h35q8 0 13 5t5 13v35q0 8-5 13t-13 5h-35q-8 0-13-5t-5-13zm0-142v-36q0-8 5-13t13-5h35q8 0 13 5t5 13v36q0 7-5 12t-13 5h-35q-8 0-13-5t-5-12zM214 82v36q0 8-5 13t-13 5h-35q-8 0-13-5t-5-13V82q0-8 5-13t13-5h35q8 0 13 5t5 13zm0 143v36q0 7-5 12t-13 5h-35q-8 0-13-5t-5-12v-36q0-8 5-13t13-5h35q8 0 13 5t5 13zm0 143v35q0 8-5 13t-13 5h-35q-8 0-13-5t-5-13v-35q0-8 5-13t13-5h35q8 0 13 5t5 13zm0 143v35q0 8-5 13t-13 5h-35q-8 0-13-5t-5-13v-35q0-8 5-13t13-5h35q8 0 13 5t5 13zm0 142v36q0 8-5 13t-13 5h-35q-8 0-13-5t-5-13v-36q0-7 5-12t13-5h35q8 0 13 5t5 12zM500-61V46q0 8-5 13t-13 5H304q-8 0-13-5t-5-13V-61q0-8 5-13t13-5h178q8 0 13 5t5 13zm0 286v36q0 7-5 12t-13 5h-36q-7 0-12-5t-5-12v-36q0-8 5-13t12-5h36q8 0 13 5t5 13zm0 143v35q0 8-5 13t-13 5h-36q-7 0-12-5t-5-13v-35q0-8 5-13t12-5h36q8 0 13 5t5 13zm0 143v35q0 8-5 13t-13 5h-36q-7 0-12-5t-5-13v-35q0-8 5-13t12-5h36q8 0 13 5t5 13zm0 142v36q0 8-5 13t-13 5h-36q-7 0-12-5t-5-13v-36q0-7 5-12t12-5h36q8 0 13 5t5 12zM643 82v36q0 8-5 13t-13 5h-36q-8 0-13-5t-5-13V82q0-8 5-13t13-5h36q8 0 13 5t5 13zm0 143v36q0 7-5 12t-13 5h-36q-8 0-13-5t-5-12v-36q0-8 5-13t13-5h36q8 0 13 5t5 13zm0 143v35q0 8-5 13t-13 5h-36q-8 0-13-5t-5-13v-35q0-8 5-13t13-5h36q8 0 13 5t5 13zm0 143v35q0 8-5 13t-13 5h-36q-8 0-13-5t-5-13v-35q0-8 5-13t13-5h36q8 0 13 5t5 13zm0 142v36q0 8-5 13t-13 5h-36q-8 0-13-5t-5-13v-36q0-7 5-12t13-5h36q8 0 13 5t5 12z" horiz-adv-x="857.1"/><glyph glyph-name="lifebuoy" unicode="" d="M500 850q102 0 194-40t160-106 106-160 40-194-40-194T854-4 694-110t-194-40-194 40T146-4 40 156 0 350t40 194 106 160 160 106 194 40zm0-71q-106 0-201-51l108-108q46 16 93 16t93-16l108 108q-95 51-201 51zM122 149l108 108q-16 46-16 93t16 93L122 551q-51-95-51-201t51-201zM500-79q106 0 201 51L593 80q-46-16-93-16t-93 16L299-28q95-51 201-51zm0 215q89 0 152 63t62 151-62 152-152 62-151-62-63-152 63-151 151-63zm270 121l108-108q51 95 51 201t-51 201L770 443q16-46 16-93t-16-93z" horiz-adv-x="1000"/><glyph glyph-name="plus" unicode="" d="M550 400q30 0 30-50t-30-50H340V90q0-30-50-30t-50 30v210H30q-30 0-30 50t30 50h210v210q0 30 50 30t50-30V400h210z" horiz-adv-x="580"/><glyph glyph-name="minus" unicode="" d="M550 400q30 0 30-50t-30-50H30q-30 0-30 50t30 50h520z" horiz-adv-x="580"/><glyph glyph-name="play" unicode="" d="M772 333L31-79q-13-7-22-2T0-61v822q0 14 9 20t22-2l741-412q13-7 13-17t-13-17z" horiz-adv-x="785.7"/><glyph glyph-name="pause" unicode="" d="M857 743V-43q0-14-10-25t-26-11H536q-15 0-25 11t-11 25v786q0 14 11 25t25 11h285q15 0 26-11t10-25zm-500 0V-43q0-14-10-25t-26-11H36q-15 0-25 11T0-43v786q0 14 11 25t25 11h285q15 0 26-11t10-25z" horiz-adv-x="857.1"/><glyph glyph-name="stop" unicode="" d="M857 743V-43q0-14-10-25t-26-11H36q-15 0-25 11T0-43v786q0 14 11 25t25 11h785q15 0 26-11t10-25z" horiz-adv-x="857.1"/><glyph glyph-name="to-end" unicode="" d="M25-71Q15-82 7-79T0-61v822q0 14 7 18t18-8l396-396q5-4 8-11v379q0 14 10 25t25 11h72q14 0 25-11t10-25V-43q0-14-10-25t-25-11h-72q-14 0-25 11t-10 25v379q-3-6-8-11z" horiz-adv-x="571.4"/><glyph glyph-name="to-end-alt" unicode="" d="M25-71Q15-82 7-79T0-61v822q0 14 7 18t18-8l396-396q5-4 8-11v397q0 14 7 18t18-8l396-396q4-4 7-11v379q0 14 11 25t25 11h71q15 0 25-11t11-25V-43q0-14-11-25t-25-11h-71q-15 0-25 11t-11 25v379q-3-6-7-11L454-71q-11-11-18-8t-7 18v397q-3-6-8-11z" horiz-adv-x="1000"/><glyph glyph-name="to-start-alt" unicode="" d="M975 771q10 11 18 8t7-18V-61q0-14-7-18t-18 8L579 325q-5 5-8 11V-61q0-14-7-18t-18 8L150 325q-5 5-7 11V-43q0-14-11-25t-25-11H36q-15 0-25 11T0-43v786q0 14 11 25t25 11h71q15 0 25-11t11-25V364q2 7 7 11l396 396q11 11 18 8t7-18V365q3 6 8 10z" horiz-adv-x="1000"/><glyph glyph-name="fast-fw" unicode="" d="M25-71Q15-82 7-79T0-61v822q0 14 7 18t18-8l396-396q5-4 8-11v397q0 14 7 18t18-8l396-396q10-11 10-25t-10-25L454-71q-11-11-18-8t-7 18v396q-3-5-8-10z" horiz-adv-x="928.6"/><glyph glyph-name="to-start" unicode="" d="M546 771q11 11 18 8t7-18V-61q0-14-7-18t-18 8L150 325q-5 5-7 11V-43q0-14-11-25t-25-11H36q-15 0-25 11T0-43v786q0 14 11 25t25 11h71q15 0 25-11t11-25V364q2 7 7 11z" horiz-adv-x="571.4"/><glyph glyph-name="fast-bw" unicode="" d="M903 771q11 11 18 8t8-18V-61q0-14-8-18t-18 8L507 325q-4 5-7 11V-61q0-14-7-18t-18 8L79 325q-11 11-11 25t11 25l396 396q11 11 18 8t7-18V365q3 6 7 10z" horiz-adv-x="928.6"/><glyph glyph-name="export" unicode="" d="M786 298V154q0-67-47-114T625-7H161Q94-7 47 40T0 154v464q0 66 47 113t114 48h142q7 0 13-6t5-12q0-15-15-18-43-15-74-34-5-2-9-2h-62q-37 0-63-26t-27-63V154q0-37 27-63t63-27h464q37 0 63 27t26 63v119q0 11 10 16 16 7 30 21 9 9 20 4 12-5 12-16zm132 277L704 361q-10-11-25-11-7 0-14 3-22 9-22 33v107h-89q-181 0-245-73-66-77-41-264 2-13-11-19-5-1-7-1-9 0-14 7-6 8-12 17t-22 38-28 56-21 64-10 68q0 27 2 50t8 51 15 49 27 45 38 42 52 34 70 27 89 17 110 6h89v107q0 24 22 33 7 3 14 3 14 0 25-11l214-214q11-11 11-25t-11-25z" horiz-adv-x="928.6"/><glyph glyph-name="share" unicode="" d="M650 200q62 0 106-43t44-107q0-62-44-106t-106-44-106 44-44 106q0 6 1 14t1 12L242 232q-42-32-92-32-62 0-106 44T0 350t44 106 106 44q54 0 92-30l260 156q0 4-1 12t-1 12q0 62 44 106t106 44 106-43 44-107q0-62-44-106t-106-44q-52 0-90 32L298 376q2-8 2-26 0-16-2-24l262-156q36 30 90 30z" horiz-adv-x="800"/><glyph glyph-name="th" unicode="" d="M286 154V46q0-22-16-37T232-7H54Q31-7 16 9T0 46v108q0 22 16 38t38 15h178q22 0 38-15t16-38zm0 285V332q0-22-16-38t-38-15H54q-23 0-38 15T0 332v107q0 23 16 38t38 16h178q22 0 38-16t16-38zm357-285V46q0-22-16-37T589-7H411q-23 0-38 16t-16 37v108q0 22 16 38t38 15h178q23 0 38-15t16-38zM286 725V618q0-22-16-38t-38-16H54q-23 0-38 16T0 618v107q0 22 16 38t38 16h178q22 0 38-16t16-38zm357-286V332q0-22-16-38t-38-15H411q-23 0-38 15t-16 38v107q0 23 16 38t38 16h178q23 0 38-16t16-38zm357-285V46q0-22-16-37T946-7H768q-22 0-38 16t-16 37v108q0 22 16 38t38 15h178q23 0 38-15t16-38zM643 725V618q0-22-16-38t-38-16H411q-23 0-38 16t-16 38v107q0 22 16 38t38 16h178q23 0 38-16t16-38zm357-286V332q0-22-16-38t-38-15H768q-22 0-38 15t-16 38v107q0 23 16 38t38 16h178q23 0 38-16t16-38zm0 286V618q0-22-16-38t-38-16H768q-22 0-38 16t-16 38v107q0 22 16 38t38 16h178q23 0 38-16t16-38z" horiz-adv-x="1000"/><glyph glyph-name="th-list" unicode="" d="M286 154V46q0-22-16-37T232-7H54Q31-7 16 9T0 46v108q0 22 16 38t38 15h178q22 0 38-15t16-38zm0 285V332q0-22-16-38t-38-15H54q-23 0-38 15T0 332v107q0 23 16 38t38 16h178q22 0 38-16t16-38zm714-285V46q0-22-16-37T946-7H411q-23 0-38 16t-16 37v108q0 22 16 38t38 15h535q23 0 38-15t16-38zM286 725V618q0-22-16-38t-38-16H54q-23 0-38 16T0 618v107q0 22 16 38t38 16h178q22 0 38-16t16-38zm714-286V332q0-22-16-38t-38-15H411q-23 0-38 15t-16 38v107q0 23 16 38t38 16h535q23 0 38-16t16-38zm0 286V618q0-22-16-38t-38-16H411q-23 0-38 16t-16 38v107q0 22 16 38t38 16h535q23 0 38-16t16-38z" horiz-adv-x="1000"/><glyph glyph-name="th-large" unicode="" d="M429 279V64q0-29-22-50T357-7H71Q42-7 21 14T0 64v215q0 29 21 50t50 21h286q29 0 50-21t22-50zm0 428V493q0-29-22-50t-50-22H71q-29 0-50 22T0 493v214q0 29 21 50t50 22h286q29 0 50-22t22-50zm500-428V64q0-29-22-50T857-7H571q-29 0-50 21t-21 50v215q0 29 21 50t50 21h286q29 0 50-21t22-50zm0 428V493q0-29-22-50t-50-22H571q-29 0-50 22t-21 50v214q0 29 21 50t50 22h286q29 0 50-22t22-50z" horiz-adv-x="928.6"/><glyph glyph-name="sliders" unicode="" d="M196 64V-7H0v71h196zm197 72q14 0 25-11t11-25V-43q0-14-11-25t-25-11H250q-14 0-25 11t-11 25v143q0 15 11 25t25 11h143zm89 214v-71H0v71h482zM125 636v-72H0v72h125zM857 64V-7H446v71h411zM321 707q15 0 26-10t10-26V529q0-15-10-26t-26-10H179q-15 0-26 10t-10 26v142q0 15 10 26t26 10h142zm358-286q14 0 25-10t10-25V243q0-15-10-25t-25-11H536q-15 0-25 11t-11 25v143q0 14 11 25t25 10h143zm178-71v-71H732v71h125zm0 286v-72H375v72h482z" horiz-adv-x="857.1"/><glyph glyph-name="picture-1" unicode="" d="M357 529q0-45-31-76t-76-32-76 32-31 76 31 75 76 32 76-32 31-75zm572-215V64H143v107l178 179 90-89 285 285zm53 393H89q-7 0-12-5t-6-13V11q0-8 6-13t12-5h893q7 0 13 5t5 13v678q0 7-5 13t-13 5zm89-18V11q0-37-26-63t-63-27H89q-36 0-63 27T0 11v678q0 37 26 63t63 27h893q37 0 63-27t26-63z" horiz-adv-x="1071.4"/><glyph glyph-name="doc-1" unicode="" d="M819 638q16-16 27-42t11-50V-96q0-23-15-38t-38-16H54q-23 0-38 16T0-96v892q0 23 16 38t38 16h500q22 0 49-11t42-27zM571 774V564h210q-5 16-12 23L594 762q-6 7-23 12zM786-79v572H554q-23 0-38 15t-16 38v233H71V-79h715z" horiz-adv-x="857.1"/><glyph glyph-name="docs" unicode="" d="M946 636q23 0 38-16t16-38V-96q0-23-16-38t-38-16H411q-23 0-38 16t-16 38V64H54q-23 0-38 16T0 118v375q0 22 11 49t27 42l228 228q15 16 42 27t49 11h232q23 0 38-16t16-38V613q38 23 71 23h232zM643 517L476 350h167v167zM286 731L119 564h167v167zm109-361l176 176v233H357V546q0-22-15-38t-38-15H71V136h286v143q0 22 11 49t27 42zM929-79v643H714V332q0-22-15-38t-38-15H429V-79h500z" horiz-adv-x="1000"/><glyph glyph-name="cog-alt" unicode="" d="M500 350q0 59-42 101t-101 42-101-42-42-101 42-101 101-42 101 42 42 101zM929 64q0 29-22 51t-50 21-50-21-21-51q0-29 21-50t50-21 51 21 21 50zm0 572q0 29-22 50t-50 21-50-21-21-50q0-30 21-51t50-21 51 21 21 51zM714 401V298q0-6-4-11t-9-6l-86-14q-6-19-18-42 19-27 50-64 4-6 4-11 0-7-4-11-13-17-46-50t-44-33q-6 0-11 4l-64 50q-21-11-43-17-6-60-13-87-4-13-17-13H305q-6 0-11 4t-5 10l-13 85q-19 6-42 18l-66-50q-4-4-11-4-6 0-12 4-80 75-80 90 0 5 4 10 5 8 23 30t26 34q-13 24-20 46l-85 13q-5 1-9 5t-4 11v103q0 6 4 11t9 6l86 14q7 19 18 42-19 27-50 64-4 6-4 11 0 7 4 11 12 17 46 50t44 33q6 0 12-4l64-50q19 10 43 18 6 60 13 86 3 13 16 13h104q6 0 11-4t6-10l13-85q19-6 41-17l66 49q5 4 11 4 7 0 12-4 81-75 81-90 0-5-4-10-7-9-24-30t-25-34q13-27 19-46l85-12q5-2 9-6t4-11zm357-298V25q0-9-83-17-6-15-16-29 28-63 28-77 0-2-2-4-68-40-69-40-5 0-26 27t-29 37q-11-1-17-1t-17 1q-7-11-29-37t-25-27q-1 0-69 40-3 2-3 4 0 14 29 77-10 14-17 29-83 8-83 17v78q0 9 83 18 7 16 17 29-29 63-29 77 0 2 3 4 2 1 19 11t33 19 17 9q4 0 25-26t29-38q12 1 17 1t17-1q28 40 51 63l4 1q2 0 69-39 2-2 2-4 0-14-28-77 9-13 16-29 83-9 83-18zm0 572v-78q0-9-83-18-6-15-16-29 28-63 28-77 0-2-2-4-68-39-69-39-5 0-26 26t-29 38q-11-1-17-1t-17 1q-7-12-29-38t-25-26q-1 0-69 39-3 2-3 4 0 14 29 77-10 14-17 29-83 9-83 18v78q0 9 83 17 7 16 17 29-29 63-29 77 0 2 3 4 2 1 19 11t33 19 17 9q4 0 25-26t29-38q12 2 17 2t17-2q28 40 51 63l4 1q2 0 69-39 2-2 2-4 0-14-28-77 9-13 16-29 83-8 83-17z" horiz-adv-x="1071.4"/><glyph glyph-name="basket" unicode="" d="M357-7q0-30-21-51t-50-21-51 21-21 51 21 50 51 21 50-21 21-50zm500 0q0-30-21-51t-50-21-51 21-21 51 21 50 51 21 50-21 21-50zm72 607V314q0-13-9-23t-23-12l-583-68 3-12q2-8 3-15t1-13q0-8-13-35h513q15 0 26-11t10-25-10-25-26-11H250q-14 0-25 11t-11 25q0 8 6 22t17 33 11 21l-98 460H36q-15 0-25 10T0 671t11 26 25 10h143q9 0 16-3t11-9 7-14 4-15 3-16 3-14h670q14 0 25-11t11-25z" horiz-adv-x="928.6"/><glyph glyph-name="lightbulb" unicode="" d="M411 529q0-8-6-13t-12-5-13 5-5 13q0 25-30 39t-59 14q-8 0-13 5t-5 13 5 13 13 5q28 0 55-9t49-30 21-50zm89 0q0 40-19 74t-50 57-69 35-76 12-76-12-69-35-50-57-20-74q0-57 38-101 6-6 17-18t17-19q72-85 79-166h127q8 81 79 166 6 6 17 19t17 18q38 44 38 101zm71 0q0-87-57-150-25-27-42-49t-33-53-19-60q26-15 26-46 0-20-14-35 14-15 14-36 0-29-25-45 8-13 8-26 0-26-18-40t-43-14q-11-25-34-39t-48-15-49 15-33 39q-26 0-44 14t-17 40q0 13 7 26-25 16-25 45 0 21 14 36-14 15-14 35 0 31 26 46-2 28-19 60t-33 53-41 49Q0 442 0 529q0 55 25 103t65 79 92 49 104 19 104-19 91-49 66-79 24-103z" horiz-adv-x="571.4"/><glyph glyph-name="desktop-1" unicode="" d="M1000 296v465q0 7-5 12t-13 6H89q-7 0-12-6t-6-12V296q0-7 6-12t12-5h893q7 0 13 5t5 12zm71 465V154q0-37-26-63t-63-27H679q0-20 9-43t17-40 9-24q0-14-10-25t-25-11H393q-15 0-25 11t-11 25q0 8 9 25t18 39 9 43H89q-36 0-63 27T0 154v607q0 37 26 63t63 26h893q37 0 63-26t26-63z" horiz-adv-x="1071.4"/><glyph glyph-name="tablet" unicode="" d="M357 64q0 15-10 25t-26 11-25-11-10-25 10-25 25-10 26 10 10 25zm214 90v535q0 8-5 13t-12 5H89q-7 0-12-5t-6-13V154q0-8 6-13t12-5h465q7 0 12 5t5 13zm72 535V82q0-37-26-63T554-7H89Q53-7 26 19T0 82v607q0 37 26 63t63 27h465q36 0 63-27t26-63z" horiz-adv-x="642.9"/><glyph glyph-name="mobile-1" unicode="" d="M259 64q0 19-13 32t-32 13-31-13-13-32 13-31 31-13 32 13 13 31zm116 90v392q0 8-5 13t-13 5H71q-7 0-12-5t-5-13V154q0-8 5-13t12-5h286q7 0 13 5t5 13zM268 627q0 9-9 9h-89q-9 0-9-9t9-9h89q9 0 9 9zm161 9V64q0-29-22-50T357-7H71Q42-7 21 14T0 64v572q0 29 21 50t50 21h286q29 0 50-21t22-50z" horiz-adv-x="428.6"/><glyph glyph-name="briefcase" unicode="" d="M357 707h286v72H357v-72zm643-357V82q0-37-26-63T911-7H89Q53-7 26 19T0 82v268h375v-89q0-15 11-25t25-11h178q15 0 25 11t11 25v89h375zm-429 0v-71H429v71h142zm429 268V403H0v215q0 37 26 63t63 26h197v89q0 23 15 38t38 16h322q22 0 38-16t15-38v-89h197q37 0 63-26t26-63z" horiz-adv-x="1000"/><glyph glyph-name="behance" unicode="" d="M1031 661H746v-69h285v69zM891 423q-51 0-82-29t-34-80h227q-10 109-111 109zm9-326q35 0 68 17t42 49h123Q1078-8 895-8 776-8 705 65t-71 194q0 116 73 193t188 77q77 0 134-38t86-100 28-139q0-9-1-26H775q0-62 32-96t93-33zm-745 27h165q114 0 114 94 0 100-111 100H155V124zm0 300h156q44 0 69 20t26 64q0 80-106 80H155V424zM0 708h332q48 0 86-8t71-26 50-54 17-86q0-101-96-147 64-17 96-64t33-114q0-41-14-76t-37-58-55-39-67-24-75-7H0v703z" horiz-adv-x="1142.9"/><glyph glyph-name="youtube" unicode="" d="M542 156V38q0-37-22-37-13 0-25 12v168q12 12 25 12 22 0 22-37zm188-1v-25h-50v25q0 38 25 38t25-38zM191 277h60v52H77v-52h59V-41h55v318zM352-41h50v276h-50V24Q335 1 320 1q-10 0-11 11-1 2-1 20v203h-50V17q0-28 5-41 7-21 32-21 27 0 57 34v-30zm240 83v110q0 41-5 55-10 31-40 31-28 0-52-30v121h-50V-41h50v27q25-31 52-31 30 0 40 31 5 15 5 56zm188 6v7h-51q0-29-1-34-4-20-22-20-26 0-26 38v49h100v57q0 44-15 65-22 28-59 28-38 0-60-28-15-21-15-65V49q0-44 16-65 22-29 60-29 40 0 60 30 10 15 12 30 1 5 1 33zM441 557v117q0 39-24 39t-24-39V557q0-39 24-39t24 39zm401-419q0-131-14-195-8-33-33-56t-57-25q-102-12-309-12t-310 12q-32 3-57 25T30-57Q15 5 15 138q0 131 15 195 7 33 32 56t57 26q103 11 310 11t309-11q33-4 57-26t33-56q14-62 14-195zM285 850h57l-67-223V476h-56v151q-8 42-34 119-21 57-37 104h60l39-147zm207-186v-97q0-46-16-66-21-29-59-29t-59 29q-15 21-15 66v97q0 45 15 65 21 29 59 29t59-29q16-20 16-65zm187 91V476h-51v31q-30-35-58-35-25 0-33 21-4 13-4 42v220h51V530q2-12 12-12 15 0 32 24v213h51z" horiz-adv-x="857.1"/><glyph glyph-name="volume-down" unicode="" d="M460 727V-27L226 207H0v286h226zm133-602l-65 63c45 45 68 108 68 168 0 59-21 115-63 159l61 61c61-63 97-144 97-228 0-76-30-156-98-223z" horiz-adv-x="691"/><glyph glyph-name="volume-up" unicode="" d="M460 727V-27L226 207H0v286h226zm133-602l-65 63c45 45 68 108 68 168 0 59-21 115-63 159l61 61c61-63 97-144 97-228 0-76-30-156-98-223zM738-6l-70 69c77 77 116 182 116 288 0 105-39 211-116 289l66 66c97-98 151-229 151-361 0-124-46-249-147-350z" horiz-adv-x="885"/><glyph glyph-name="dot" unicode="" d="M110 460q46 0 78-32t32-78q0-44-32-77t-78-33-78 33-32 77q0 46 32 78t78 32z" horiz-adv-x="220"/><glyph glyph-name="dribbble" unicode="" d="M571 13q-23 134-78 278h-1l-1-1q-9-3-24-9t-56-27-77-46-73-64-57-82l-9 6q103-84 234-84 73 0 142 29zM468 352q-12 27-29 62-174-52-376-52v-12q0-69 24-132t69-112q28 49 69 93t80 69 73 45 55 27l21 7q2 1 7 2t7 3zm-59 118q-67 119-137 211-77-36-130-104T70 425q169 0 339 45zm381-178q-117 33-228 16 49-133 71-262 62 42 104 106t53 140zM341 705h-1 1zm329-80q-103 91-241 91-43 0-87-11 73-94 137-213 39 15 73 34t54 34 36 32 21 23zm125-271q-2 129-83 229l-1-1q-5-7-11-14t-24-24-40-34-55-36-74-36q14-30 25-53 1-4 3-10t5-9q20 2 41 4t41 1 39-1 35-2 32-3 27-4 20-3 14-3zm62-4q0-117-57-215T644-21 429-79 213-21 58 135 0 350t58 215 155 156 216 58 215-58 156-156 57-215z" horiz-adv-x="857.1"/><glyph glyph-name="tumblr" unicode="" d="M527 108l44-132q-12-19-61-37t-99-18q-58-1-107 15t-79 41-53 59-31 67-9 66v304H38v120q40 14 72 39t51 50 32 57 19 55 8 49q1 3 3 5t4 2h136V613h186V473H363V184q0-17 3-32t13-29 28-23 45-8q44 1 75 16z" horiz-adv-x="571.4"/><glyph glyph-name="rss" unicode="" d="M184 93c0-51-43-91-93-91S0 42 0 93c0 50 41 91 91 91s93-41 93-91zM445 8H320c0 174-140 323-315 323v118c231 0 440-163 440-441zm259 0H568c0 300-262 561-563 561v129c370 0 699-281 699-690z" horiz-adv-x="704"/><glyph glyph-name="circle-empty" unicode="" d="M429 654q-83 0-153-41T166 502t-41-152 41-152T276 87t153-41 152 41 110 111 41 152-41 152-110 111-152 41zm428-304q0-117-57-215T644-21 429-79 213-21 58 135 0 350t58 215 155 156 216 58 215-58 156-156 57-215z" horiz-adv-x="857.1"/><glyph glyph-name="circle-thin" unicode="" d="M429 707q-73 0-139-28t-114-76-76-114-29-139 29-139 76-113 114-77T429-7t138 28 114 77 76 113 29 139-29 139-76 114-114 76-138 28zm428-357q0-117-57-215T644-21 429-79 213-21 58 135 0 350t58 215 155 156 216 58 215-58 156-156 57-215z" horiz-adv-x="857.1"/><glyph glyph-name="up" unicode="" d="M660 336H468V-14H192v350H0l330 380z" horiz-adv-x="660"/><glyph glyph-name="spin3" unicode="" d="M494 850C228 850 11 640 0 378c-1-19 13-20 13-20h84c16 0 19 10 19 18 10 199 176 358 378 358 107 0 205-45 273-118l-58-57c-11-12-11-27 5-31l247-50c21-5 46 11 37 44l-58 227c-2 9-16 22-29 13l-65-60c-89 91-214 148-352 148zm409-508c-16 0-19-10-19-18C874 125 708-34 507-34 399-34 302 11 233 84l59 57c10 12 10 27-5 31L39 222c-21 5-46-11-37-44L60-49c2-9 16-22 30-13l64 60c89-91 214-148 353-148 265 0 482 210 493 473 1 18-13 19-13 19h-84z" horiz-adv-x="1000"/><glyph glyph-name="user" unicode="" d="M0-150V6q0 24 58 58t159 71q99 35 137 73t37 101q0 29-27 72t-32 59q-12 35-29 135-10 52-14 93-2 22 6 50t28 60 67 51 110 21 110-21 67-51 28-60 6-50q-4-41-14-93-17-100-29-135-6-16-32-59t-27-72q0-64 37-101t137-73q217-80 217-129v-156H0z" horiz-adv-x="1000"/><glyph glyph-name="menu" unicode="" d="M650 400q22 0 36-15t14-35-15-35-35-15H50q-20 0-35 15T0 350t14 35 36 15h600zM50 500q-20 0-35 15T0 550t14 35 36 15h600q22 0 36-15t14-35-15-35-35-15H50zm600-300q22 0 36-15t14-35-15-35-35-15H50q-20 0-35 15T0 150t14 35 36 15h600z" horiz-adv-x="700"/><glyph glyph-name="up-open" unicode="" d="M939 107l-92-92Q836 5 821 5t-25 10L500 312 204 15Q193 5 179 5t-26 10l-92 92q-11 11-11 26t11 25l414 414q11 10 25 10t25-10l414-414q11-11 11-25t-11-26z" horiz-adv-x="1000"/><glyph glyph-name="pencil" unicode="" d="M938 605q22-22 22-55t-22-55L368-75q-22-21-60-38t-73-17H0v234q0 35 17 74t38 60l570 570q23 22 55 22t55-22zM144 179l65-64 431 433-64 63zm91-205q14 0 33 8-10 10-27 26t-50 50-56 56l-22 22q-9-21-9-32V26l52-52h79zm74 40l432 432-63 64L245 79zm469 469l67 67-165 165-67-66z" horiz-adv-x="960"/><glyph glyph-name="lock-1" unicode="" d="M0-30v393q0 15 10 25t24 10h46v148q0 54 20 104t56 87q36 39 85 60t104 21q54 0 103-21t85-60q36-38 56-87t20-104V398h46q14 0 24-10t10-25V-30q0-7-3-12t-7-8-10-7-14-6q-19-8-53-18t-111-24-147-14q-151 0-310 56-16 6-25 13T0-30zm206 428h277v148q0 63-42 107-40 42-96 43-58-1-98-43-41-44-41-107V398z" horiz-adv-x="689"/><glyph glyph-name="lock-2" unicode="" d="M179 421h285v108q0 59-42 101t-101 41-101-41-41-101V421zm464-53V46q0-22-16-37T589-7H54Q31-7 16 9T0 46v322q0 22 16 38t38 15h17v108q0 102 74 176t176 74 177-74 73-176V421h18q23 0 38-15t16-38z" horiz-adv-x="642.9"/><glyph glyph-name="brush" unicode="" d="M901 850q39 0 69-26t29-65q0-35-25-84-185-351-260-420-54-51-121-51-71 0-121 52t-51 122q0 72 52 119l356 323q33 30 72 30zM394 273q22-42 59-73t84-42l1-40q2-119-72-193t-195-75q-68 0-121 26T64-53 16 49 0 172q4-3 23-17t35-25 32-20 26-9q23 0 31 20 14 37 32 63t39 42 49 27 57 14 70 6z" horiz-adv-x="1000"/><glyph glyph-name="iconmonstr-shopping-cart-4-icon" unicode="" d="M678 570H98l105-237h400l75 237zm-460-79h357l-26-81H254l-36 81zm684 154l-25-78h-58L703 199H260l-35 78h421l115 368h141zM619 108c0-29-24-53-53-53s-52 24-52 53 23 52 52 52 53-23 53-52zm-174 0c0-29-23-53-52-53s-53 24-53 53 24 52 53 52 52-23 52-52z" horiz-adv-x="1000"/><glyph glyph-name="chronometer" unicode="" d="M47 303C47 182 94 68 180-17c85-86 199-133 320-133s235 47 320 133c86 85 133 199 133 320s-47 235-133 321c-78 78-179 124-289 131v33h63c17 0 31 14 31 31s-14 31-31 31H406c-17 0-31-14-31-31s14-31 31-31h63v-33c-109-7-211-53-289-131C94 538 47 424 47 303zm842 31h-30c-17 0-31-14-31-31s14-31 31-31h30c-6-82-38-160-92-222-1 1-1 2-2 3l-45 44c-12 12-32 12-44 0s-12-32 0-44l44-44c1-1 2-2 4-3-63-54-140-86-223-92v45c0 18-14 32-31 32s-31-14-31-32v-45c-83 6-160 38-222 92l3 3 44 44c12 12 12 32 0 44s-32 12-44 0l-44-44-3-3c-54 62-86 140-92 222h30c17 0 31 14 31 31s-14 31-31 31h-30c6 83 38 160 92 223 1-1 2-3 3-3l44-45c6-6 14-9 22-9s16 3 22 9c12 13 12 32 0 45l-44 44c-1 1-2 1-3 2 62 54 139 86 222 92v-29c0-18 14-32 31-32s31 14 31 32v29c83-6 160-38 223-92-2-1-3-1-4-2l-44-44c-12-13-12-32 0-45 6-6 14-9 22-9s16 3 22 9l45 45c1 0 1 2 2 3 54-63 86-140 92-223zm-358 23v134c0 17-14 31-31 31s-31-14-31-31V357c-19-11-31-31-31-54 0-34 28-62 62-62s63 28 63 62c0 23-13 43-32 54z" horiz-adv-x="1000"/><glyph glyph-name="clock-1" unicode="" d="M500 850c-133 0-259-52-353-146C52 609 0 484 0 350S52 91 147-4c94-94 220-146 353-146S759-98 854-4c94 95 146 221 146 354s-52 259-146 354c-95 94-220 146-354 146zM809 41C727-42 617-88 500-88S273-42 191 41C108 123 63 233 63 350s45 227 128 309c82 83 192 129 309 129s227-46 309-129c83-82 129-192 129-309S892 123 809 41zm-78 244l-200 86v323c0 17-14 31-31 31s-31-14-31-31V350c0-12 7-24 19-29l218-93c5-2 9-3 13-3 12 0 23 7 29 19 6 16-1 34-17 41zm-543 96h-32c-17 0-31-14-31-31s14-31 31-31h32c17 0 31 14 31 31s-14 31-31 31zm593-31c0-17 14-31 32-31h31c17 0 31 14 31 31s-14 31-31 31h-31c-18 0-32-14-32-31zM500 69c-17 0-31-14-31-31V6c0-17 14-31 31-31s31 14 31 31v32c0 17-14 31-31 31z" horiz-adv-x="1000"/><glyph glyph-name="archive" unicode="" d="M938 850H63c-35 0-63-28-63-62V-88c0-34 28-62 63-62h875c34 0 62 28 62 62v876c0 34-28 62-62 62zM63 756c0 18 14 32 31 32h812c18 0 32-14 32-32V288H688c-18 0-32-14-32-32v-93H344v93c0 18-14 32-31 32H63v468zM938-56c0-18-14-32-32-32H94c-17 0-31 14-31 32v281h218v-94c0-17 14-31 32-31h375c17 0 31 14 31 31v94h219V-56zM219 600h562c18 0 32 14 32 31s-14 32-32 32H219c-17 0-31-14-31-32s14-31 31-31zm594-156c0 17-14 31-32 31H219c-17 0-31-14-31-31s14-31 31-31h562c18 0 32 14 32 31z" horiz-adv-x="1000"/><glyph glyph-name="band-aid" unicode="" d="M688 850c-87 0-165-35-221-91L92 384C35 327 0 249 0 163 0-10 140-150 313-150c86 0 164 35 221 91l375 376c56 56 91 134 91 221 0 172-140 312-312 312zM442 645l353-353L558 55 205 408l237 237zM313-88C175-88 63 25 63 163c0 66 26 129 73 176l25 25L514 11l-25-25c-47-48-110-74-176-74zm551 449l-24-25-354 354 25 24c47 48 110 74 177 74 137 0 250-113 250-250 0-67-26-130-74-177z" horiz-adv-x="1000"/><glyph glyph-name="bank" unicode="" d="M938 38h-94v437h94c28 0 53 19 60 47 7 27-5 56-29 70L531 842c-10 5-20 8-31 8s-21-3-31-8L32 592C7 578-5 549 2 522c7-28 32-47 61-47h93V38H63C28 38 0 10 0-25v-125h1000v125c0 35-28 63-62 63zM94 538c-19 0-9 12-1 17 8 4 314 179 390 223 11 6 23 6 33 1 74-43 381-218 390-224 11-6 21-17 0-17H94zm687-63V38h-62v437h62zm-125 0V38h-62v437h62zm-125 0V38h-62v437h62zm-125 0V38h-62v437h62zm-125 0V38h-62v437h62zM938-88H63v32c0 17 14 31 31 31h812c18 0 32-14 32-31v-32z" horiz-adv-x="1000"/><glyph glyph-name="basketball" unicode="" d="M854 704c-196 195-512 195-707 0C-49 508-49 192 147-4c195-195 511-195 707 0 195 196 195 512 0 708zm82-379c-98 10-200-19-280-87L544 350l286 286c77-89 113-201 106-311zM656 150L786 20c-58-51-127-84-199-99-8 81 15 163 69 229zm44 44c66 54 148 77 229 69-15-72-48-141-99-199L700 194zm86 486L500 394 388 506c68 80 97 182 87 280 110 7 222-29 311-106zM300 506c-66-54-148-77-229-69 15 72 48 141 99 199l130-130zm-86 174c58 51 127 84 199 99 8-80-15-163-69-229L214 680zM64 375c98-10 200 19 280 87l112-112L170 64C93 153 57 265 64 375zM214 20l286 286 112-112c-68-80-97-182-87-280-110-7-222 29-311 106z" horiz-adv-x="1000"/><glyph glyph-name="battery" unicode="" d="M938 506h-63v94c0 35-28 63-62 63H63c-35 0-63-28-63-63V100c0-34 28-62 63-62h750c34 0 62 28 62 62v94h63c34 0 62 28 62 62v188c0 34-28 62-62 62zm0-218c0-18-14-32-32-32h-62c-17 0-31-14-31-31v-94c0-17-14-31-32-31H94c-17 0-31 14-31 31v438c0 17 14 31 31 31h687c18 0 32-14 32-31v-94c0-17 14-31 31-31h62c18 0 32-14 32-31V288zM125 163h438l125 375H125V163zm63 312h413l-83-250H188v250z" horiz-adv-x="1000"/><glyph glyph-name="cloudy" unicode="" d="M874 347c-15 176-163 316-343 316-159 0-297-104-337-250h-6C84 413 0 328 0 225S84 38 188 38h656c86 0 156 70 156 156 0 76-54 139-126 153zm-30-247H188c-69 0-125 56-125 125s56 125 125 125h31c15 0 28 11 31 26 24 130 142 224 281 224 155 0 282-126 282-281 0-17 14-31 31-31 52 0 94-42 94-94s-42-94-94-94z" horiz-adv-x="1000"/><glyph glyph-name="angle-left" unicode="" d="M350 546q0-7-6-12L125 314 344 95q6-6 6-13t-6-13l-28-28q-5-5-12-5t-13 5L31 301q-6 6-6 13t6 13l260 260q5 6 13 6t12-6l28-28q6-5 6-13z" horiz-adv-x="357.1"/><glyph glyph-name="angle-right" unicode="" d="M332 314q0-7-6-13L66 41q-5-5-12-5t-13 5L13 69q-6 6-6 13t6 13l219 219L13 534q-6 5-6 12t6 13l28 28q5 6 13 6t12-6l260-260q6-5 6-13z" horiz-adv-x="357.1"/><glyph glyph-name="angle-up" unicode="" d="M600 189q0-7-6-13l-28-27q-5-6-12-6t-13 6L321 368 102 149q-5-6-13-6t-13 6l-27 27q-6 6-6 13t6 13l260 260q5 6 12 6t13-6l260-260q6-5 6-13z" horiz-adv-x="642.9"/><glyph glyph-name="angle-down" unicode="" d="M600 439q0-7-6-13L334 166q-5-5-13-5t-12 5L49 426q-6 6-6 13t6 13l27 28q6 6 13 6t13-6l219-219 220 219q5 6 13 6t12-6l28-28q6-5 6-13z" horiz-adv-x="642.9"/><glyph glyph-name="heart-2" unicode="" d="M790 642q70-64 70-156t-70-156L430 0 70 330Q0 394 0 486t70 156q64 58 152 58t150-58l58-52 56 52q64 58 152 58t152-58zm-54-260q42 40 42 104 0 66-38 100-38 38-102 38-52 0-104-48l-104-92-106 92q-48 48-102 48-64 0-104-38-38-36-38-100 0-66 44-104L430 96z" horiz-adv-x="860"/><glyph glyph-name="comment-1" unicode="" d="M781 662H156q-21 0-37-15t-15-36V246q0-21 15-37t37-16h157v-8l8 8h460q22 0 37 16t16 37v365q0 21-16 36t-37 15zm0 105q65 0 111-46t46-110V246q0-65-46-111T781 89H365L209-67V89h-53q-65 0-110 46T0 246v365q0 65 46 110t110 46h625z" horiz-adv-x="938"/><glyph glyph-name="heart" unicode="" d="M508-66q-17 0-29 9-26 17-85 58T240 113 106 223Q0 329 0 487q0 116 82 198t198 82q143 0 228-118 38 55 99 86t129 32q117 0 198-82t81-198q0-158-106-264-38-38-133-110T621 0t-83-57q-13-9-30-9zM280 663q-72 0-124-51t-52-125q0-114 76-190 79-79 328-248 248 169 327 248 76 76 76 190 0 73-51 125t-124 51q-73 0-125-51t-51-125q0-22-16-37t-36-15-37 15-15 37q0 73-52 125t-124 51z" horiz-adv-x="1015"/><glyph glyph-name="link-1" unicode="" d="M294 116q14 14 34 14t36-14q32-34 0-70L322 6q-56-56-132-56-78 0-134 56T0 138q0 78 56 134l148 148q70 68 144 77t128-43q16-16 16-36t-16-36q-36-32-70 0-50 48-132-34L126 202q-26-26-26-64t26-62q26-26 63-26t63 26zm450 574q56-56 56-132 0-78-56-134L586 266q-74-72-150-72-62 0-112 50-14 14-14 34t14 36q14 14 35 14t35-14q50-48 122 24l158 156q28 28 28 64 0 38-28 62-24 26-56 31t-60-21l-50-50q-16-14-36-14t-34 14q-34 34 0 70l50 50q54 54 127 51t129-61z" horiz-adv-x="800"/><glyph glyph-name="heart-1" unicode="" d="M500-79q-14 0-25 10L127 267l-15 15q-10 10-31 36t-38 55-30 67-13 77q0 123 71 192t196 70q34 0 70-12t67-33 54-38 42-38q20 20 42 38t54 38 67 33 70 12q125 0 196-70t71-192q0-123-128-251L525-69q-10-10-25-10z" horiz-adv-x="1000"/><glyph glyph-name="calendar-empty" unicode="" d="M71-79h786v572H71V-79zm215 679v161q0 8-5 13t-13 5h-36q-8 0-13-5t-5-13V600q0-8 5-13t13-5h36q8 0 13 5t5 13zm428 0v161q0 8-5 13t-13 5h-35q-8 0-13-5t-5-13V600q0-8 5-13t13-5h35q8 0 13 5t5 13zm215 36V-79q0-29-22-50t-50-21H71q-29 0-50 21T0-79v715q0 29 21 50t50 21h72v54q0 36 26 63t63 26h36q37 0 63-26t26-63v-54h214v54q0 36 27 63t63 26h35q37 0 63-26t27-63v-54h71q29 0 50-21t22-50z" horiz-adv-x="928.6"/><glyph glyph-name="arrows-cw" unicode="" d="M843 261v-4Q807 107 693 14T426-79q-81 0-157 31T133 40L61-32Q50-43 36-43T11-32 0-7v250q0 14 11 25t25 11h250q14 0 25-11t10-25-10-25l-77-77q40-37 90-57t105-20q74 0 139 37t104 99q6 10 29 66 5 13 17 13h107q8 0 13-6t5-12zm14 446V457q0-14-10-25t-26-11H571q-14 0-25 11t-10 25 10 25l77 77q-82 77-194 77-75 0-140-37t-104-99q-6-10-29-66-5-13-17-13H28q-7 0-13 6t-5 12v4q36 150 151 243t268 93q81 0 158-31t137-88l72 72q11 11 25 11t26-11 10-25z" horiz-adv-x="857.1"/><glyph glyph-name="calendar" unicode="" d="M71-79h161V82H71V-79zm197 0h178V82H268V-79zM71 118h161v178H71V118zm197 0h178v178H268V118zM71 332h161v161H71V332zM482-79h179V82H482V-79zM268 332h178v161H268V332zM696-79h161V82H696V-79zM482 118h179v178H482V118zM286 600v161q0 7-6 12t-12 6h-36q-7 0-12-6t-6-12V600q0-7 6-13t12-5h36q7 0 12 5t6 13zm410-482h161v178H696V118zM482 332h179v161H482V332zm214 0h161v161H696V332zm18 268v161q0 7-5 12t-13 6h-35q-8 0-13-6t-5-12V600q0-7 5-13t13-5h35q8 0 13 5t5 13zm215 36V-79q0-29-22-50t-50-21H71q-29 0-50 21T0-79v715q0 29 21 50t50 21h72v54q0 36 26 63t63 26h36q37 0 63-26t26-63v-54h214v54q0 36 27 63t63 26h35q37 0 63-26t27-63v-54h71q29 0 50-21t22-50z" horiz-adv-x="928.6"/><glyph glyph-name="plug" unicode="" d="M979 597q21-20 21-50t-21-51L756 273l83-84-89-89Q659 9 533-4T303 52L101-150H0v101l202 202q-69 103-56 230t104 217l89 89 84-83 223 223q21 21 51 21t50-21 21-50-21-51L524 504l131-130 223 223q22 21 51 21t50-21z" horiz-adv-x="1000"/><glyph glyph-name="fast_food" unicode="" d="M656-9v125c0 17-14 31-31 31H31c-17 0-31-14-31-31V-9c0-18 14-32 31-32h594c17 0 31 14 31 32zm-62 31H63v62h531V22zM94 241c-17 0-31-14-31-32s14-31 31-31h469c17 0 31 14 31 31s-14 32-31 32H94zm-63 31h594c17 0 31 14 31 31 0 2-3 219-328 219S0 305 0 303c0-17 14-31 31-31zm297 187c189 0 243-79 259-125H69c16 46 71 125 259 125zm641 125H808l-27 162c-3 17-19 28-36 26-17-3-29-19-26-36l25-152h-25c-9 0-17-3-23-9-6-7-9-15-8-24l31-562c1-17 14-30 31-30h188c16 0 30 13 31 30l31 562c0 9-3 17-8 24-6 6-15 9-23 9zM908 22H780l-28 500h184L908 22z" horiz-adv-x="1000"/><glyph glyph-name="dialogue_think" unicode="" d="M500 350c52 0 94 42 94 94s-42 94-94 94-94-42-94-94 42-94 94-94zm0 125c17 0 31-14 31-31s-14-31-31-31-31 14-31 31 14 31 31 31zM250 350c52 0 94 42 94 94s-42 94-94 94-94-42-94-94 42-94 94-94zm0 125c17 0 31-14 31-31s-14-31-31-31-31 14-31 31 14 31 31 31zm500-125c52 0 94 42 94 94s-42 94-94 94-94-42-94-94 42-94 94-94zm0 125c17 0 31-14 31-31s-14-31-31-31-31 14-31 31 14 31 31 31zm219 328H31c-17 0-31-14-31-31V116c0-18 14-32 31-32h219V-72c0-12 7-23 18-28 4-2 9-3 13-3 8 0 15 2 21 7L512 84h457c17 0 31 14 31 32v656c0 17-14 31-31 31zm-31-656H500c-7 0-15-3-20-8L313-4v120c0 17-14 31-32 31H63v594h875V147z" horiz-adv-x="1000"/><glyph glyph-name="eye-1" unicode="" d="M500 616C175 616 12 378 5 367c-7-10-7-24 0-34S175 84 500 84s488 239 495 249 7 24 0 34c-7 11-169 249-495 249zm0-469c-242 0-387 151-429 203 42 52 186 203 429 203 242 0 387-151 430-203-43-52-187-203-430-203zm0 344c-77 0-141-63-141-141s64-141 141-141 141 64 141 141-63 141-141 141zm0-219c-43 0-78 35-78 78s35 78 78 78 78-35 78-78-35-78-78-78z" horiz-adv-x="1000"/><glyph glyph-name="flag-1" unicode="" d="M188 850c-18 0-32-14-32-31v-938c0-17 14-31 32-31s31 14 31 31v469h594c10 0 20 6 26 15s6 21 2 30l-87 174 87 173c4 10 4 22-2 31s-16 15-26 15H219v31c0 17-14 31-31 31zm574-125l-71-142c-5-9-5-19 0-28l71-142H219v312h543z" horiz-adv-x="1000"/><glyph glyph-name="home-1" unicode="" d="M625-150h188c17 0 31 14 31 31v438h125c12 0 24 7 29 19s2 25-7 34L522 841c-12 12-32 12-44 0L9 372c-9-9-12-22-7-34s17-19 29-19h125v-438c0-17 14-31 32-31h187c17 0 31 14 31 31v219h188v-219c0-17 14-31 31-31zM375 163c-17 0-31-14-31-32V-88H219v438c0 17-14 31-31 31h-81l393 394 393-394h-80c-18 0-32-14-32-31V-88H656v219c0 18-14 32-31 32H375z" horiz-adv-x="1000"/><glyph glyph-name="home173" unicode="" d="M984 414L530 805c-17 15-43 15-60 0L16 414c-19-16-21-45-5-64s45-21 64-5l425 366 425-366c9-7 19-11 30-11 12 0 25 6 34 16 16 19 14 48-5 64zm-484-18c-56 0-102-46-102-103s46-102 102-102 102 46 102 102-46 103-102 103zm15 251c-9 7-21 7-30 0L143 351c-5-4-8-10-8-17V-93c0-13 10-23 23-23h685c12 0 22 10 22 23v427c0 7-3 13-8 17L515 647zm3-680c-4-6-11-9-18-9s-14 3-18 9c-18 23-175 227-175 326 0 107 87 193 193 193s193-86 193-193c0-99-157-303-175-326z" horiz-adv-x="1000"/><glyph glyph-name="hotel4" unicode="" d="M1000 256v5c-2 100-53 158-128 193v52c0 103-76 164-204 164-95 0-162-34-189-95-31 51-94 80-182 80-127 0-203-61-203-164v-48C37 408 0 350 0 258V66c0-20 16-36 36-36h48c19 0 35 16 35 36v85h761V66c0-20 16-36 36-36h48c20 0 36 16 36 36v190zM36 187v53h928v-53H36zm465 319c0 116 117 128 167 128s168-12 168-128v-38c-99 32-226 34-336 34v1c0 1 1 2 1 3zm-371-15c0 116 117 128 167 128 49 0 160-12 167-117-119 0-244-2-334-40v29zm352-25c128 0 267 0 362-38l6-3c64-27 107-73 113-149H36c12 176 193 190 446 190zM36 66v85h48V66H36zm880 0v85h48V66h-48z" horiz-adv-x="1000"/><glyph glyph-name="hourglass" unicode="" d="M781 600v94h63c17 0 31 14 31 31v94c0 17-14 31-31 31H156c-17 0-31-14-31-31v-94c0-17 14-31 31-31h63v-94c0-109 62-203 153-250-91-47-153-141-153-250V6h-63c-17 0-31-14-31-31v-94c0-17 14-31 31-31h688c17 0 31 14 31 31v94c0 17-14 31-31 31h-63v94c0 109-62 203-153 250 91 47 153 141 153 250zM188 788h625v-32H188v32zM813-88H188v32h625v-32zm-94 188V6H281v94c0 121 98 219 219 219s219-98 219-219zM500 381c-121 0-219 98-219 219v94h438v-94c0-121-98-219-219-219z" horiz-adv-x="1000"/><glyph glyph-name="house149" unicode="" d="M799 56H481v168H330V56H213v268h-51V6h687v318h-50V56zM380 174h50V56h-50v118zm323 520L564 552v124H397v-94l-14 10L0 330l28-42 354 243 334-242 29 40-200 146h19v33l19-13 119 123 260-325 38 32-297 369zM440 559h7v67h67V491l-74 68z" horiz-adv-x="1000"/><glyph glyph-name="image" unicode="" d="M31-9h938c17 0 31 14 31 31v656c0 17-14 31-31 31H31c-17 0-31-14-31-31V22C0 5 14-9 31-9zm32 62v49l311 283 166-166c7-7 16-10 25-9 9 0 17 5 23 12l73 98L938 71V53H63zm875 594V155L677 389c-6 6-15 9-24 8-8-1-16-6-22-13l-72-96-162 162c-12 12-31 13-43 1L63 186v461h875zM797 397c60 0 109 49 109 109s-49 110-109 110-109-49-109-110 49-109 109-109zm0 156c26 0 47-21 47-47s-21-47-47-47-47 21-47 47 21 47 47 47z" horiz-adv-x="1000"/><glyph glyph-name="list" unicode="" d="M31 506h94c17 0 31 14 31 32s-14 31-31 31H31c-17 0-31-14-31-31s14-32 31-32zm938 63H344c-17 0-31-14-31-31s14-32 31-32h625c17 0 31 14 31 32s-14 31-31 31zM31 319h94c17 0 31 14 31 31s-14 31-31 31H31c-17 0-31-14-31-31s14-31 31-31zm938 62H344c-17 0-31-14-31-31s14-31 31-31h625c17 0 31 14 31 31s-14 31-31 31zM31 131h94c17 0 31 14 31 32s-14 31-31 31H31c-17 0-31-14-31-31s14-32 31-32zm938 63H344c-17 0-31-14-31-31s14-32 31-32h625c17 0 31 14 31 32s-14 31-31 31z" horiz-adv-x="1000"/><glyph glyph-name="medical_case" unicode="" d="M969 600H703v94c0 17-14 31-31 31H328c-17 0-31-14-31-31v-94H31c-17 0-31-14-31-31V6c0-17 14-31 31-31h938c17 0 31 14 31 31v563c0 17-14 31-31 31zm-610 63h282v-63H359v63zM938 38H63v500h875V38zM531 319v125c0 17-14 31-31 31s-31-14-31-31V319H344c-17 0-31-14-31-31s14-32 31-32h125V131c0-17 14-31 31-31s31 14 31 31v125h125c18 0 32 14 32 32s-14 31-32 31H531z" horiz-adv-x="1000"/><glyph glyph-name="microphone_1" unicode="" d="M469 165V-88H266c-18 0-32-14-32-31s14-31 32-31h468c18 0 32 14 32 31s-14 31-32 31H531v253c131 18 250 147 250 279 0 17-14 31-31 31s-31-14-31-31c0-109-111-219-219-219S281 335 281 444c0 17-14 31-31 31s-31-14-31-31c0-132 119-261 250-279zm31 123c86 0 156 70 156 156v250c0 86-70 156-156 156s-156-70-156-156V444c0-86 70-156 156-156zm0 500c52 0 94-42 94-94v-16h-31c-18 0-32-14-32-31s14-31 32-31h31v-63h-31c-18 0-32-14-32-31s14-31 32-31h31v-47c0-52-42-94-94-94s-94 42-94 94v47h32c17 0 31 14 31 31s-14 31-31 31h-32v63h32c17 0 31 14 31 31s-14 31-31 31h-32v16c0 52 42 94 94 94z" horiz-adv-x="1000"/><glyph glyph-name="microphone_2" unicode="" d="M72-16l125-125c6-6 14-9 22-9h94c8 0 16 3 22 9l321 322 50-50L603 28c-12-12-12-32 0-44s32-12 44 0l125 125c12 12 12 32 0 44l-94 94c-12 12-32 12-44 0L300-88h-68L138 6l18 19 41-41c6-6 14-9 22-9s16 3 22 9l404 405c19-5 38-8 58-8 129 0 235 105 235 235S832 850 703 850 469 745 469 616c0-20 3-40 7-58L72 153c-12-12-12-32 0-44l40-40-40-41C60 16 60-4 72-16zm631 804c95 0 172-78 172-172s-77-172-172-172-172 77-172 172 77 172 172 172zM583 415l-83-83-81 81 83 83c20-34 48-61 81-81zm-208-47l81-80L219 51l-81 80 237 237z" horiz-adv-x="1000"/><glyph glyph-name="minus-1" unicode="" d="M500 850c-134 0-259-52-353-146C52 609 0 484 0 350S52 91 147-4c94-94 219-146 353-146S759-98 854-4c94 95 146 221 146 354s-52 259-146 354c-95 94-220 146-354 146zM809 41C727-42 617-88 500-88S273-42 191 41C108 123 63 233 63 350s45 227 128 309c82 83 192 129 309 129s227-46 309-129c83-82 129-192 129-309S892 123 809 41zm-28 340H219c-17 0-31-14-31-31s14-31 31-31h562c18 0 32 14 32 31s-14 31-32 31z" horiz-adv-x="1000"/><glyph glyph-name="multiple_image" unicode="" d="M969 756H156c-17 0-31-14-31-31v-94H31c-17 0-31-14-31-31V-25c0-17 14-31 31-31h813c17 0 31 14 31 31v94h94c17 0 31 14 31 31v625c0 17-14 31-31 31zM813 569V74L645 218c-10 8-25 10-36 3l-134-81-201 231c-6 6-14 10-23 10-9 1-17-3-23-9L63 207v362h750zM63 118l186 186L445 79c10-11 27-14 40-6l137 82L796 6H63v112zm875 13h-63v469c0 17-14 31-31 31H188v63h750V131zM641 288c60 0 109 49 109 109s-49 109-109 109-110-49-110-109 49-109 110-109zm0 156c26 0 47-21 47-47s-21-47-47-47-47 21-47 47 21 47 47 47z" horiz-adv-x="1000"/><glyph glyph-name="paper_sheet" unicode="" d="M813-150c34 0 62 28 62 62v876c0 34-28 62-62 62H406c-25 0-57-13-75-31L156 644c-18-18-31-50-31-75V-88c0-34 28-62 63-62h625zm0 938V-88H188v657h156c34 0 62 28 62 62v157h407zm-469-45V631H232l112 112zm156-143h188c17 0 31 14 31 31s-14 32-31 32H500c-17 0-31-14-31-32s14-31 31-31zm188-94H313c-18 0-32-14-32-31s14-31 32-31h375c17 0 31 14 31 31s-14 31-31 31zm0-156H313c-18 0-32-14-32-31s14-31 32-31h375c17 0 31 14 31 31s-14 31-31 31zm0-156H313c-18 0-32-14-32-31s14-32 32-32h375c17 0 31 14 31 32s-14 31-31 31zm0-156H313c-18 0-32-14-32-32s14-31 32-31h375c17 0 31 14 31 31s-14 32-31 32z" horiz-adv-x="1000"/><glyph glyph-name="pen_pencil_ruler" unicode="" d="M547-150c34 0 62 28 62 62v876c0 34-28 62-62 62H359c-34 0-62-28-62-62V-88c0-34 28-62 62-62h188zM359 788h188v-94h-94c-17 0-31-14-31-31s14-32 31-32h94v-93h-16c-17 0-31-14-31-32s14-31 31-31h16v-94h-94c-17 0-31-14-31-31s14-31 31-31h94v-94h-16c-17 0-31-14-31-31s14-31 31-31h16V69h-94c-17 0-31-14-31-31s14-32 31-32h94v-94H359v876zM141-134c17 0 32 11 42 29l34 69c10 20 17 52 17 74v718c0 35-28 63-62 63h-63c-34 0-62-28-62-63V38c0-22 7-54 17-74l35-69c9-18 24-29 42-29zM161-8l-20-41-21 41c-5 11-11 33-11 46v562h63V38c0-13-5-35-11-46zm11 764v-93h-63v93h63zm670-20l-34 69c-10 18-25 29-42 29s-33-11-42-29l-35-69c-10-20-17-51-17-73V-56c0-35 28-63 62-63h63c34 0 62 28 62 63h32c34 0 62 28 62 62v125c0 18-14 32-31 32s-31-14-31-32V6h-32v657c0 22-7 53-17 73zM797-56h-63v719c0 12 6 34 11 45l21 41 20-41c6-11 11-33 11-45V-56z" horiz-adv-x="1000"/><glyph glyph-name="pencil-1" unicode="" d="M49-140c8 0 16 2 24 5L297-35c19 9 45 26 60 41l612 612c12 12 18 28 18 45s-6 32-18 44L857 819c-12 12-28 18-44 18s-33-6-45-18L141 191c-15-15-33-41-41-61L14-78c-9-23-2-38 2-45 8-11 20-17 33-17zM313 51s0-1 0 0L200 163l519 518 112-112L313 51zm500 724l112-112-50-50-112 112 50 50zM158 106c1 2 2 5 3 7l97-97L90-59l68 165z" horiz-adv-x="1000"/><glyph glyph-name="pencil_ruler" unicode="" d="M41 835c-20 0-41-15-41-47V-88c0-34 28-62 63-62h875c30 0 41 18 44 26 3 7 8 28-13 49L75 819c-13 13-26 16-34 16zM63-88v63h62c17 0 31 14 31 31s-14 32-31 32H63v62h31c17 0 31 14 31 31s-14 32-31 32H63v62h62c17 0 31 14 31 31s-14 32-31 32H63v62h31c17 0 31 14 31 31s-14 32-31 32H63v62h62c17 0 31 14 31 31s-14 32-31 32H63v203L893-88H63zm187 63h375c31 0 41 18 45 26 3 8 8 28-14 49L263 444c-13 13-26 16-35 16-19 0-40-15-40-47V38c0-35 28-63 62-63zm0 393L581 38H250v330zm617-243l64-16c5-2 10-2 15-2 15 0 29 6 37 17 10 13 13 28 9 45l-17 65c-5 22-21 50-37 66L419 819c-12 12-27 18-44 18s-32-6-44-18l-50-50c-24-24-24-64 0-88l519-518c16-17 44-33 67-38zm48 93l11-44-44 11c-12 3-30 14-38 22L419 631l50 50 424-425c9-8 19-26 22-38zM375 775l50-50-50-50-50 50 50 50z" horiz-adv-x="1000"/><glyph glyph-name="plan1" unicode="" d="M977 842H23c-12 0-23-10-23-23V69c0-13 11-24 23-24h540c13 0 23 11 23 24s-10 23-23 23H375v63c0 13-10 23-23 23s-24-10-24-23V92H47v375h281V342c0-13 11-23 24-23s23 10 23 23v31h297c13 0 23 11 23 24s-10 23-23 23H375v282c0 13-10 23-23 23s-24-10-24-23V514H47v281h906V420H828v63c0 13-10 23-23 23s-24-10-24-23v-86c0-13 11-24 24-24h148V-95H750V61c0 13-10 23-23 23s-24-10-24-23v-180c0-13 11-23 24-23h250c13 0 23 10 23 23v938c0 13-10 23-23 23z" horiz-adv-x="1000"/><glyph glyph-name="plus-1" unicode="" d="M500 850c-134 0-259-52-353-146C52 609 0 484 0 350S52 91 147-4c94-94 219-146 353-146S759-98 854-4c94 95 146 221 146 354s-52 259-146 354c-95 94-220 146-354 146zM809 41C727-42 617-88 500-88S273-42 191 41C108 123 63 233 63 350s45 227 128 309c82 83 192 129 309 129s227-46 309-129c83-82 129-192 129-309S892 123 809 41zm-28 340H531v250c0 18-14 32-31 32s-31-14-31-32V381H219c-17 0-31-14-31-31s14-31 31-31h250V69c0-17 14-31 31-31s31 14 31 31v250h250c18 0 32 14 32 31s-14 31-32 31z" horiz-adv-x="1000"/><glyph glyph-name="portable_pc" unicode="" d="M31 6h938c17 0 31 14 31 32v93c0 18-14 32-31 32h-63v500c0 17-14 31-31 31H125c-17 0-31-14-31-31V163H31c-17 0-31-14-31-32V38C0 20 14 6 31 6zm125 625h688V163H156v468zM63 100h875V69H63v31zm415 491c-6-6-9-14-9-22s3-16 9-22 14-9 22-9 16 3 22 9 9 14 9 22-3 16-9 22c-11 12-32 12-44 0z" horiz-adv-x="1000"/><glyph glyph-name="pricetag" unicode="" d="M384-141c6-6 14-9 22-9s16 3 22 9l563 563c6 6 9 14 9 22v375c0 17-14 31-31 31H594c-8 0-16-3-22-9L9 278c-12-12-12-32 0-44l375-375zm223 929h331V457L406-75 76 256l531 532zm127-329c69 0 125 57 125 125s-56 125-125 125-125-56-125-125 57-125 125-125zm0 188c35 0 63-28 63-63s-28-62-63-62-62 28-62 62 28 63 62 63z" horiz-adv-x="1000"/><glyph glyph-name="printer" unicode="" d="M31 6h188v-125c0-17 14-31 31-31h500c17 0 31 14 31 31V6h188c17 0 31 14 31 32v500c0 17-14 31-31 31H781v250c0 17-14 31-31 31H250c-17 0-31-14-31-31V569H31c-17 0-31-14-31-31V38C0 20 14 6 31 6zm688-94H281v313h438V-88zM281 788h438V569H281v219zM63 506h875V69H781v187c0 18-14 32-31 32H250c-17 0-31-14-31-32V69H63v437zm115-56c-11 12-32 12-44 0-6-6-9-14-9-22s3-16 9-22 14-9 22-9 17 3 22 9c6 6 10 14 10 22s-4 16-10 22zm72-53c8 0 16 3 22 9s9 14 9 22-3 16-9 22c-11 12-32 12-44 0-6-6-9-14-9-22s3-16 9-22 14-9 22-9zm406-234H344c-17 0-31-14-31-32s14-31 31-31h312c18 0 32 14 32 31s-14 32-32 32zm0-125H344c-17 0-31-14-31-32s14-31 31-31h312c18 0 32 14 32 31s-14 32-32 32z" horiz-adv-x="1000"/><glyph glyph-name="shield_left" unicode="" d="M275 62c6-6 14-9 22-9h672c17 0 31 14 31 31v532c0 17-14 31-31 31H297c-8 0-16-3-22-9L9 372c-12-12-12-32 0-44L275 62zm35 522h628V116H310L76 350l234 234z" horiz-adv-x="1000"/><glyph glyph-name="shield_right" unicode="" d="M31 53h672c8 0 16 3 22 9l266 266c12 12 12 32 0 44L725 638c-6 6-14 9-22 9H31c-17 0-31-14-31-31V84c0-17 14-31 31-31zm32 531h627l235-234-235-234H63v468z" horiz-adv-x="1000"/><glyph glyph-name="shield_up" unicode="" d="M750-150c17 0 31 14 31 31v672c0 8-3 16-9 22L507 841c-13 12-32 12-45 0L197 575c-6-6-9-14-9-22v-672c0-17 14-31 31-31h531zM250 540l234 235 235-235V-88H250v628z" horiz-adv-x="1000"/><glyph glyph-name="sinth" unicode="" d="M969 850H31c-17 0-31-14-31-31v-938c0-17 14-31 31-31h938c17 0 31 14 31 31v938c0 17-14 31-31 31zM938-88H63v876h875V-88zM156 600h63V6c0-17 14-31 31-31s31 14 31 31v594h63c17 0 31 14 31 31s-14 32-31 32h-63v31c0 17-14 31-31 31s-31-14-31-31v-31h-63c-17 0-31-14-31-32s14-31 31-31zM656 38h63V6c0-17 14-31 31-31s31 14 31 31v32h63c17 0 31 14 31 31s-14 31-31 31h-63v594c0 17-14 31-31 31s-31-14-31-31V100h-63c-17 0-31-14-31-31s14-31 31-31zM406 319h63V6c0-17 14-31 31-31s31 14 31 31v313h63c17 0 31 14 31 31s-14 31-31 31h-63v313c0 17-14 31-31 31s-31-14-31-31V381h-63c-17 0-31-14-31-31s14-31 31-31z" horiz-adv-x="1000"/><glyph glyph-name="smartphone" unicode="" d="M750 850H250c-17 0-31-14-31-31v-938c0-17 14-31 31-31h500c17 0 31 14 31 31v938c0 17-14 31-31 31zM719-88H281v876h438V-88zM516 38h-32c-17 0-31-14-31-32s14-31 31-31h32c17 0 31 14 31 31s-14 32-31 32zM391 663h218c18 0 32 14 32 31s-14 31-32 31H391c-18 0-32-14-32-31s14-31 32-31z" horiz-adv-x="1000"/><glyph glyph-name="sold4" unicode="" d="M332 374c-23 6-25 8-25 14 0 4 5 7 13 7 7 0 16-3 25-8 3-2 6-3 10-3 10 0 17 8 17 18 0 7-4 12-8 15-13 8-28 12-44 12-30 0-50-18-50-44 0-30 21-38 46-45 24-6 24-9 24-13 0-8-12-8-15-8-11 0-21 3-31 11-4 2-7 3-11 3-10 0-18-7-18-17 0-6 3-11 7-15 15-10 34-16 52-16 32 0 53 17 53 45s-22 38-45 44zm131 55c-42 0-75-32-75-73s32-72 74-72 75 32 75 73-32 72-74 72zm0-110c-21 0-36 17-36 38s15 37 35 37c21 0 36-16 36-38 0-21-15-37-35-37zm178-2h-58v92c0 11-6 19-16 19s-17-8-17-19V305c0-10 13-22 23-22h68c10 0 18 7 18 17s-8 17-18 17zm86 116h-37c-11 0-23-14-23-25V305c0-10 12-22 23-22h37c43 0 74 35 74 76 0 40-31 74-74 74zm0-116h-10v83h10c21 0 35-20 35-42 0-21-14-41-35-41zM183 100h700v517H183V100zm50 467h600V150H233v417z" horiz-adv-x="1000"/><glyph glyph-name="spread" unicode="" d="M965 787l-465-62-465 62c-9 2-18-1-24-7S0 765 0 756V6C0-9 12-23 27-25l469-62c1 0 3-1 4-1s3 1 4 1l469 62c15 2 27 16 27 31v750c0 9-4 18-11 24-6 6-15 8-24 7zM63 721l406-55V-21L63 34v687zM938 34L531-21v687l407 55V34zM152 569l250-31h4c16 0 29 11 31 27 2 17-10 33-27 35l-250 31c-17 2-33-10-35-27s10-33 27-35zm258-125l-250 31c-17 2-33-10-35-27s10-33 27-35l250-31c2-1 3-1 4-1 16 0 29 12 31 28 2 17-10 32-27 35zm0-157l-250 32c-17 2-33-10-35-28-2-17 10-32 27-34l250-32h4c16 0 29 12 31 27 2 18-10 33-27 35zm0-156l-250 31c-17 2-33-10-35-27s10-33 27-35l250-31h4c16 0 29 11 31 27 2 17-10 33-27 35zm184 407h4l250 31c17 2 29 18 27 35s-18 29-35 27l-250-31c-17-2-29-18-27-35 2-16 15-27 31-27zm0-157c1 0 2 0 4 1l250 31c17 2 29 18 27 35s-18 29-35 27l-250-31c-17-3-29-18-27-35 2-16 15-28 31-28zm0-156h4l250 32c17 2 29 17 27 34-2 18-18 30-35 28l-250-32c-17-2-29-17-27-35 2-15 15-27 31-27zm246-63l-250-31c-17-2-29-18-27-35 2-16 15-27 31-27h4l250 31c17 2 29 18 27 35s-18 29-35 27z" horiz-adv-x="1000"/><glyph glyph-name="squares" unicode="" d="M31 413h375c18 0 32 14 32 31v375c0 17-14 31-32 31H31c-17 0-31-14-31-31V444c0-17 14-31 31-31zm32 375h312V475H63v313zm937 31c0 17-14 31-31 31H594c-17 0-31-14-31-31V444c0-17 14-31 31-31h375c17 0 31 14 31 31v375zm-62-344H625v313h313V475zM31-150h391c17 0 31 14 31 31v391c0 17-14 31-31 31H31c-17 0-31-14-31-31v-391c0-17 14-31 31-31zm32 391h328V-88H63v329zm906 47H594c-17 0-31-14-31-32v-375c0-17 14-31 31-31h375c17 0 31 14 31 31v375c0 18-14 32-31 32zM938-88H625v313h313V-88z" horiz-adv-x="1000"/><glyph glyph-name="stormy" unicode="" d="M647 94c12 12 12 32 0 44s-32 12-44 0l-90-90 94-62-35-36c-12-12-12-32 0-44 6-6 14-9 22-9s16 3 22 9l89 89-93 63 35 36zm-250 0c12 12 12 32 0 44s-32 12-44 0l-90-90 94-62-35-36c-12-12-12-32 0-44 6-6 14-9 22-9s16 3 22 9l89 89-93 63 35 36zm477 394c-15 176-163 315-343 315-159 0-297-103-337-250h-6C84 553 0 469 0 366s84-188 188-188h656c86 0 156 70 156 156 0 76-54 140-126 154zm-30-247H188c-69 0-125 56-125 125s56 125 125 125h31c15 0 28 10 31 25 24 130 142 225 281 225 155 0 282-126 282-282 0-17 14-31 31-31 52 0 94-42 94-94s-42-93-94-93z" horiz-adv-x="1000"/><glyph glyph-name="tshirt" unicode="" d="M969 788H656c-10 0-19-5-25-13l-84-112h-94l-84 112c-6 8-15 13-25 13H31c-17 0-31-14-31-32V506c0-17 14-31 31-31h157V-56c0-18 14-32 31-32h562c18 0 32 14 32 32v531h156c17 0 31 14 31 31v250c0 18-14 32-31 32zm-31-250H781c-17 0-31-14-31-32V-25H250v531c0 18-14 32-31 32H63v187h265l85-112c5-8 15-13 25-13h125c9 0 19 5 25 13l84 112h266V538z" horiz-adv-x="1000"/><glyph glyph-name="tv_monitor" unicode="" d="M969 725H31c-17 0-31-14-31-31V69c0-17 14-31 31-31h438V-88H344c-17 0-31-14-31-31s14-31 31-31h312c18 0 32 14 32 31s-14 31-32 31H531V38h438c17 0 31 14 31 31v625c0 17-14 31-31 31zm-31-625H63v563h875V100z" horiz-adv-x="1000"/><glyph glyph-name="umbrella" unicode="" d="M500 850C72 850 1 453 0 449c-1-9 2-18 7-25 6-7 15-11 24-11h438V-56c0-52 42-94 94-94s93 42 93 94c0 17-14 31-31 31s-31-14-31-31c0-18-14-32-31-32s-32 14-32 32v469h438c17 0 31 14 31 31 0 3 0 7-1 10-11 48-98 396-499 396zM71 475c27 90 124 313 429 313s402-223 429-313H71z" horiz-adv-x="1000"/><glyph glyph-name="video_cam" unicode="" d="M984 565c-10 5-22 5-32-1L750 438v100c0 17-14 31-31 31h-81L513 694H94c-17 0-31-14-31-31s14-32 31-32h393l63-62H31c-17 0-31-14-31-31V38C0 20 14 6 31 6h688c17 0 31 14 31 32v99L952 11c5-3 11-5 17-5 5 0 10 2 15 4 10 6 16 16 16 28v500c0 11-6 21-16 27zM938 94L735 220c-9 6-21 7-31 1-10-5-16-16-16-27V69H63v437h625V381c0-11 6-22 16-27 10-6 22-5 31 1l203 126V94zM125 381h63c17 0 31 14 31 32s-14 31-31 31h-63c-17 0-31-14-31-31s14-32 31-32zm250-62H125c-17 0-31-14-31-31V163c0-18 14-32 31-32h250c17 0 31 14 31 32v125c0 17-14 31-31 31zm-31-125H156v62h188v-62z" horiz-adv-x="1000"/><glyph glyph-name="beer" unicode="" d="M1000 694c0 69-56 125-125 125-10 0-19-2-28-4-27 22-60 35-97 35-30 0-59-9-83-24-20 15-46 24-73 24-38 0-72-17-95-44-19 8-40 13-61 13-13 0-26-2-38-5-22 22-53 36-87 36-69 0-125-56-125-125 0-46 25-86 62-108v-17H63c-35 0-63-28-63-62V163c0-35 28-63 63-63h187V-88c0-34 28-62 63-62h562c35 0 63 28 63 62v674c37 22 62 62 62 108zM250 163H94c-17 0-31 14-31 31v312c0 18 14 32 31 32h156V163zM875-56c0-18-14-32-31-32H344c-17 0-31 14-31 32v625c28-38 73-63 125-63 30 0 58 9 82 25 21-16 46-25 74-25 38 0 71 18 94 44 19-8 40-12 62-12 37 0 70 13 97 34 9-2 18-3 28-3V-56zm20 691c-7-2-13-4-20-4-17 0-32 7-43 18-11-19-27-34-47-42-11-4-22-7-35-7-12 0-23 2-34 7-15 5-27 15-37 27-8-7-16-13-25-18-3-11-9-22-17-30-11-10-26-17-43-17-10 0-19 2-27 6-17 8-29 23-34 41-3 2-7 4-11 7-9-19-23-34-42-43-13-7-27-11-42-11-33 0-61 16-78 41-10 15-16 33-16 53 0 3 0 6 1 9-10-6-21-9-32-9-12 0-22 3-31 8-19 10-32 31-32 54 0 35 28 63 63 63 9 0 17-2 25-6 20-9 34-28 36-51 16 15 37 24 59 25h5c11 0 23-2 33-6 15-6 28-15 38-27 7 6 16 12 24 17 3 12 9 22 18 30 11 11 26 18 43 18 9 0 18-3 27-7 16-8 29-23 33-41 4-2 8-4 11-6 9 18 24 33 42 43 13 6 28 11 43 11 13 0 24-3 35-7 20-9 36-23 47-42 11 11 26 17 43 17 7 0 13-1 20-3 24-8 43-32 43-59s-19-51-43-59zM500 444c-17 0-31-14-31-31V69c0-17 14-31 31-31s31 14 31 31v344c0 17-14 31-31 31zm188 0c-18 0-32-14-32-31V69c0-17 14-31 32-31s31 14 31 31v344c0 17-14 31-31 31z" horiz-adv-x="1000"/><glyph glyph-name="bell" unicode="" d="M906 42c-53 14-93 62-93 121v312c0 141-93 259-221 299-8 43-46 76-92 76s-84-33-92-76c-128-40-220-158-220-299V163c0-59-40-107-94-121 0 0-31-9-31-36 0-17 14-31 31-31h281c0-69 56-125 125-125S625-94 625-25h281c18 0 32 14 32 31 0 28-32 36-32 36zM500-88c-34 0-62 28-62 63h125c0-35-28-63-63-63zM202 38c30 33 48 77 48 125v312c0 109 71 202 168 236 16 6 33 10 51 12v33c0 18 14 32 31 32s31-14 31-32v-33c18-2 35-6 51-12 98-34 168-127 168-236V163c0-48 18-92 48-125H202z" horiz-adv-x="1000"/><glyph glyph-name="watch-1" unicode="" d="M313-150h375c17 0 31 14 31 31V85c76 63 125 159 125 265s-49 202-125 265v204c0 17-14 31-31 31H313c-18 0-32-14-32-31V615c-76-63-125-158-125-265s49-202 125-265v-204c0-17 14-31 32-31zm343 62H344V44C391 20 444 6 500 6s109 14 156 38V-88zM344 788h312V656c-47 24-100 38-156 38s-109-14-156-38v132zM219 350c0 155 126 281 281 281s281-126 281-281S655 69 500 69 219 195 219 350zm267-28l125-62c5-3 9-4 14-4 11 0 23 7 28 18 8 15 1 34-14 42l-108 53v169c0 17-14 31-31 31s-31-14-31-31V350c0-12 6-23 17-28z" horiz-adv-x="1000"/><glyph glyph-name="book-closed" unicode="" d="M875 850H125c-34 0-62-28-62-62V-25c0-69 56-125 125-125h687c35 0 63 28 63 62v876c0 34-28 62-63 62zm-750-94c0 18 14 32 31 32h32V100c-23 0-44-7-63-17v673zM875-56c0-18-14-32-31-32H188c-35 0-63 28-63 63s28 63 63 63h687v-94zm0 156H250v688h594c17 0 31-14 31-32V100zM406 538h125c18 0 32 14 32 31s-14 31-32 31H406c-17 0-31-14-31-31s14-31 31-31zm313-63H406c-17 0-31-14-31-31s14-31 31-31h313c17 0 31 14 31 31s-14 31-31 31z" horiz-adv-x="1000"/><glyph glyph-name="book-opened" unicode="" d="M384 286l-219 63c-17 4-34-5-39-22-4-16 5-33 22-38l218-63c3-1 6-1 9-1 14 0 26 9 30 23 5 16-5 34-21 38zm0 125l-219 63c-17 4-34-5-39-22-4-16 5-34 22-38l218-63c3-1 6-1 9-1 14 0 26 9 30 23 5 16-5 34-21 38zM148 539l218-63c3-1 6-1 9-1 14 0 26 9 30 23 5 16-5 34-21 38l-219 63c-17 4-34-5-39-22-4-16 5-33 22-38zm687-190l-219-63c-16-4-26-22-21-38 4-14 16-23 30-23 3 0 6 0 9 1l218 63c17 5 27 22 22 38-5 17-22 26-39 22zm-210 1c3 0 6 0 9 1l218 63c17 4 27 22 22 38-5 17-22 26-39 22l-219-63c-16-4-26-22-21-38 4-14 16-23 30-23zm0 125c3 0 6 0 9 1l218 63c17 5 27 22 22 38-5 17-22 26-39 22l-219-63c-16-4-26-22-21-38 4-14 16-23 30-23zm363 369c-8 5-18 8-27 5L500 726 39 849c-9 3-19 0-27-5S0 828 0 819V6C0-8 10-20 23-24l469-125c3-1 5-1 8-1s5 0 8 1L977-24c14 4 23 16 23 30v813c0 9-4 19-12 25zm-50-689L531 47v623l407 108V155zM63 778l406-108V47L63 155v623zm0-687L469-18v-60L63 30v61zM531-78v60L938 91V30L531-78z" horiz-adv-x="1000"/><glyph glyph-name="box" unicode="" d="M938 850H63c-35 0-63-28-63-62V600c0-34 28-62 63-62V-88c0-34 28-62 62-62h750c35 0 63 28 63 62v626c34 0 62 28 62 62v188c0 34-28 62-62 62zM875-56c0-18-14-32-31-32H156c-17 0-31 14-31 32v594h750V-56zm63 687c0-17-14-31-32-31H94c-17 0-31 14-31 31v125c0 18 14 32 31 32h812c18 0 32-14 32-32V631zM344 288h312c18 0 32 14 32 31s-14 31-32 31H344c-17 0-31-14-31-31s14-31 31-31z" horiz-adv-x="1000"/><glyph glyph-name="briefcase-1" unicode="" d="M938 663H750v125c0 34-28 62-62 62H313c-35 0-63-28-63-62V663H63c-35 0-63-28-63-63V-88c0-34 28-62 63-62h875c34 0 62 28 62 62v688c0 35-28 63-62 63zm-625 93c0 18 14 32 31 32h312c18 0 32-14 32-32v-93H313v93zM938-56c0-18-14-32-32-32H94c-17 0-31 14-31 32v250h343v-63c0-17 14-31 32-31h125c17 0 31 14 31 31v63h344V-56zM531 163h-62v125h62V163zm407 93H594v63c0 17-14 31-31 31H438c-18 0-32-14-32-31v-63H63v313c0 17 14 31 31 31h812c18 0 32-14 32-31V256z" horiz-adv-x="1000"/><glyph glyph-name="browser" unicode="" d="M938 850H63c-35 0-63-28-63-62V-88c0-34 28-62 63-62h875c34 0 62 28 62 62v876c0 34-28 62-62 62zm0-906c0-18-14-32-32-32H94c-17 0-31 14-31 32v594h875V-56zm0 656H63v156c0 18 14 32 31 32h812c18 0 32-14 32-32V600zM469 725H281c-17 0-31-14-31-31s14-31 31-31h188c17 0 31 14 31 31s-14 31-31 31zm62-656h250c18 0 32 14 32 31v250c0 17-14 31-32 31H531c-17 0-31-14-31-31V100c0-17 14-31 31-31zm32 250h187V131H563v188zm-344 0h187c18 0 32 14 32 31s-14 31-32 31H219c-17 0-31-14-31-31s14-31 31-31zm0-125h187c18 0 32 14 32 31s-14 31-32 31H219c-17 0-31-14-31-31s14-31 31-31zm0-125h187c18 0 32 14 32 31s-14 31-32 31H219c-17 0-31-14-31-31s14-31 31-31z" horiz-adv-x="1000"/><glyph glyph-name="brush-1" unicode="" d="M954 803c-62 62-163 62-225 0L378 453c-65 10-140-5-211-77C67 277 58 182 50 91 44 30 38-34 3-104c-6-12-3-27 6-37 10-9 25-12 37-6 70 35 134 41 195 47 92 8 186 17 286 117 71 71 86 146 76 211l351 351c62 62 62 162 0 224zM482 62c-84-84-159-91-246-99-45-4-95-9-148-25 17 53 21 103 25 147 8 88 15 163 99 246 130 131 256 14 269 0 14-13 131-139 1-269zm100 234c-16 34-36 61-55 80s-47 40-80 55l214 215 135-135-214-215zm327 327l-68-67-135 135 68 67c37 38 98 38 135 0 37-37 37-97 0-135z" horiz-adv-x="1000"/><glyph glyph-name="building-1" unicode="" d="M938 663H625v125c0 34-28 62-62 62H63c-35 0-63-28-63-62V-88c0-34 28-62 63-62h875c34 0 62 28 62 62v688c0 35-28 63-62 63zM344-88h-63V38h63V-88zm219 0H406V69c0 17-14 31-31 31H250c-17 0-31-14-31-31V-88H94c-17 0-31 14-31 32v812c0 18 14 32 31 32h437c18 0 32-14 32-32V-88zm375 32c0-18-14-32-32-32H625v688h281c18 0 32-14 32-31V-56z" horiz-adv-x="1000"/><glyph glyph-name="bus" unicode="" d="M969 538v125c0 103-84 187-188 187H219c-104 0-188-84-188-187V538c-17 0-31-14-31-32V381c0-17 14-31 31-31V38c0-35 28-63 63-63v-94c0-17 14-31 31-31h125c17 0 31 14 31 31v94h438v-94c0-17 14-31 31-31h125c17 0 31 14 31 31v94c35 0 63 28 63 63v312c17 0 31 14 31 31v125c0 18-14 32-31 32zM219 788h562c46 0 86-26 108-63H111c22 37 62 63 108 63zM94 663h375V350H94v313zM219-88h-63v63h63v-63zm625 0h-63v63h63v-63zm62 157c0-17-14-31-31-31H125c-17 0-31 14-31 31v219h812V69zm0 281H531v313h375V350z" horiz-adv-x="1000"/><glyph glyph-name="calendar-2" unicode="" d="M938 788H781v31c0 17-14 31-31 31s-31-14-31-31v-31H281v31c0 17-14 31-31 31s-31-14-31-31v-31H63c-35 0-63-28-63-63V-88c0-34 28-62 63-62h875c34 0 62 28 62 62v813c0 35-28 63-62 63zm0-844c0-18-14-32-32-32H94c-17 0-31 14-31 32v594h875V-56zm0 656H63v94c0 17 14 31 31 31h125v-31c0-17 14-31 31-31s31 14 31 31v31h438v-31c0-17 14-31 31-31s31 14 31 31v31h125c18 0 32-14 32-31v-94zM250 350h63c17 0 31 14 31 31s-14 32-31 32h-63c-17 0-31-14-31-32s14-31 31-31zm438 0h62c17 0 31 14 31 31s-14 32-31 32h-62c-18 0-32-14-32-32s14-31 32-31zm-219 0h62c18 0 32 14 32 31s-14 32-32 32h-62c-17 0-31-14-31-32s14-31 31-31zM250 194h63c17 0 31 14 31 31s-14 31-31 31h-63c-17 0-31-14-31-31s14-31 31-31zm438 0h62c17 0 31 14 31 31s-14 31-31 31h-62c-18 0-32-14-32-31s14-31 32-31zm-219 0h62c18 0 32 14 32 31s-14 31-32 31h-62c-17 0-31-14-31-31s14-31 31-31zM250 38h63c17 0 31 14 31 31s-14 31-31 31h-63c-17 0-31-14-31-31s14-31 31-31zm219 0h62c18 0 32 14 32 31s-14 31-32 31h-62c-17 0-31-14-31-31s14-31 31-31z" horiz-adv-x="1000"/><glyph glyph-name="car" unicode="" d="M905 408c1 3 1 5 1 7-1 16-36 373-281 373H375C153 788 94 542 94 413c0-2 0-3 1-5-55-13-95-62-95-120V163C0 93 56 38 125 38v-94c0-18 14-32 31-32h125c18 0 32 14 32 32v94h375v-94c0-18 14-32 31-32h125c17 0 31 14 31 32v94c69 0 125 55 125 125v125c0 58-40 107-95 120zM375 725h250c178 0 215-282 219-312H156c0 12 3 312 219 312zM250-25h-62v63h62v-63zm563 0h-63v63h63v-63zm125 188c0-35-28-63-63-63H125c-34 0-62 28-62 63v125c0 34 28 62 62 62h750c35 0 63-28 63-62V163zm-282 93H344c-17 0-31-14-31-31s14-31 31-31h312c18 0 32 14 32 31s-14 31-32 31z" horiz-adv-x="1000"/><glyph glyph-name="chart-line" unicode="" d="M938 850H63c-35 0-63-28-63-62V-88c0-34 28-62 63-62h875c34 0 62 28 62 62v876c0 34-28 62-62 62zM94 788h812c18 0 32-14 32-32V341L651 505c3 10 5 21 5 33 0 69-56 125-125 125s-125-56-125-125c0-24 7-45 18-64L63 113v643c0 18 14 32 31 32zm375-250c0 34 28 62 62 62s63-28 63-62-28-63-63-63-62 28-62 63zM906-88H94c-17 0-31 14-31 32v81l405 405c19-11 40-17 63-17 35 0 67 14 90 37l317-181V-56c0-18-14-32-32-32z" horiz-adv-x="1000"/><glyph glyph-name="geolocalizator" unicode="" d="M625 491c0 69-56 125-125 125s-125-56-125-125 56-125 125-125 125 56 125 125zm-187 0c0 34 28 62 62 62s63-28 63-62-28-63-63-63-62 28-62 63zm62-641c8 0 17 4 23 11 14 15 338 385 336 629 0 199-162 360-359 360-198 0-359-161-359-360 0-244 321-614 335-629 6-7 14-11 24-11zm0 938c163 0 296-134 297-298 1-185-223-471-297-560-74 89-297 375-297 560 0 164 133 298 297 298z" horiz-adv-x="1000"/><glyph glyph-name="graph" unicode="" d="M969-88h-31v438c0 35-28 63-63 63h-94c-34 0-62-28-62-63V-88h-31v751c0 34-28 62-63 62h-94c-34 0-62-28-62-62V-88h-31v282c0 34-28 62-63 62h-94c-34 0-62-28-62-62V-88H63V38h62c17 0 31 14 31 31s-14 31-31 31H63v94c17 0 31 14 31 31s-14 31-31 31v94h62c17 0 31 14 31 31s-14 32-31 32H63v93c17 0 31 14 31 32s-14 31-31 31v94h62c17 0 31 14 31 31s-14 31-31 31H63v94c0 17-14 31-32 31S0 836 0 819V-88c0-34 28-62 63-62h906c17 0 31 14 31 31s-14 31-31 31zM781 350h94V-88h-94v438zM531 663h94V-88h-94v751zM281 194h94V-88h-94v282z" horiz-adv-x="1000"/><glyph glyph-name="graph_descending" unicode="" d="M969-88H63V38h62c17 0 31 14 31 31s-14 31-31 31H63v94c17 0 31 14 31 31s-14 31-31 31v94h62c17 0 31 14 31 31s-14 32-31 32H63v93c17 0 31 14 31 32s-14 31-31 31v94h62c17 0 31 14 31 31s-14 31-31 31H63v94c0 17-14 31-32 31S0 836 0 819V-88c0-34 28-62 63-62h906c17 0 31 14 31 31s-14 31-31 31zM491 560L335 716c-13 12-32 12-45 0s-12-32 0-44l135-134-72-72c-12-12-12-32 0-44l322-322h-81c-17 0-31-14-31-31s14-31 31-31h162c1 0 2 1 3 1s2 1 3 1 2 1 3 2c1 0 2 0 2 1 4 2 7 5 9 9 1 0 1 1 1 2 1 1 1 2 2 3 0 1 1 2 1 3s1 2 1 3v162c0 17-14 31-31 31s-31-14-31-31v-81L419 444l72 71c12 13 12 32 0 45z" horiz-adv-x="1000"/><glyph glyph-name="graph_rising" unicode="" d="M969-88H63V38h62c17 0 31 14 31 31s-14 31-31 31H63v94c17 0 31 14 31 31s-14 31-31 31v94h62c17 0 31 14 31 31s-14 32-31 32H63v93c17 0 31 14 31 32s-14 31-31 31v94h62c17 0 31 14 31 31s-14 31-31 31H63v94c0 17-14 31-32 31S0 836 0 819V-88c0-34 28-62 63-62h906c17 0 31 14 31 31s-14 31-31 31zm-94 407c17 0 31 14 31 31v162c-1 1-1 2-1 3s-1 2-1 3c-1 1-1 2-2 3 0 1 0 2-1 3-2 3-5 6-9 8 0 1-1 1-2 2-1 0-2 1-3 1-1 1-2 1-3 1s-2 1-3 1c-2 0-4 1-6 1H719c-17 0-31-14-31-32s14-31 31-31h81L500 175l-72 72c-12 12-32 12-44 0L228 91c-12-12-12-32 0-44 6-6 14-9 22-9s16 3 22 9l134 134 72-72c12-12 32-12 44 0l322 322v-81c0-17 14-31 31-31z" horiz-adv-x="1000"/><glyph glyph-name="hammer" unicode="" d="M710 310c-13 12-32 12-45 0l-24-25-253 253 165 165c13 12 13 32 0 44l-62 63c-12 12-32 12-44 0-1-1-34-33-75-33-24 0-47 11-69 33-12 12-32 12-44 0L9 560c-12-13-12-32 0-45l156-156c7-6 15-9 23-9s16 3 22 9l134 134 252-252-24-25c-12-12-12-32 0-44l281-282c6-6 14-9 22-9s16 3 22 9l94 94c12 12 12 32 0 44L710 310zM188 426L76 538l207 207c27-20 57-30 89-30 39 0 73 17 94 31l21-21-299-299zM875-43L638 194l50 49L925 6l-50-49z" horiz-adv-x="1000"/><glyph glyph-name="heart-3" unicode="" d="M750 803c-109 0-203-55-250-135-47 80-141 135-250 135C86 803 0 662 0 522 0 195 464-87 484-99c5-3 10-4 16-4s11 1 16 4c20 12 484 294 484 621 0 140-86 281-250 281zM500-35C419 17 63 262 63 522c0 105 58 219 187 219 105 0 219-72 219-188 0-17 14-31 31-31s31 14 31 31c0 116 114 188 219 188 129 0 188-114 188-219 0-260-357-505-438-557z" horiz-adv-x="1000"/><glyph glyph-name="lock_open" unicode="" d="M94 319v-438c0-17 14-31 31-31h750c17 0 31 14 31 31v438c0 17-14 31-31 31H281v219c0 120 98 219 219 219s219-99 219-219v-63c0-17 14-31 31-31s31 14 31 31v63c0 155-126 281-281 281S219 724 219 569V350h-94c-17 0-31-14-31-31zm62-31h688V-88H156v376zm344-63c-52 0-94-42-94-94 0-40 26-75 63-88V6c0-17 14-31 31-31s31 14 31 31v37c37 13 63 48 63 88 0 52-42 94-94 94zm0-125c-17 0-31 14-31 31s14 32 31 32 31-14 31-32-14-31-31-31z" horiz-adv-x="1000"/><glyph glyph-name="magnifier" unicode="" d="M710 278c-13 13-32 13-45 0l-24-24-60 59c47 57 75 130 75 209 0 181-147 328-328 328S0 703 0 522s147-328 328-328c79 0 152 28 209 75l59-60-24-24c-12-13-12-32 0-45l281-281c6-6 14-9 22-9s16 3 22 9l94 94c12 12 12 32 0 44L710 278zM63 522c0 146 119 266 265 266s266-120 266-266-119-266-266-266S63 375 63 522zM875-75L638 163l50 49L925-25l-50-50z" horiz-adv-x="1000"/><glyph glyph-name="mail-2" unicode="" d="M969 663H31c-17 0-31-14-31-32V69c0-17 14-31 31-31h938c17 0 31 14 31 31v562c0 18-14 32-31 32zm-100-63L500 371 131 600h738zM63 100v469l437-271 438 271V100H63z" horiz-adv-x="1000"/><glyph glyph-name="mail_open" unicode="" d="M980 473l-136 54v292c0 17-14 31-31 31H188c-18 0-32-14-32-31V527L20 473c-13-5-20-17-20-29v-563c0-17 14-31 31-31h938c17 0 31 14 31 31v563c0 12-7 24-20 29zm-74-38l-62-38v63l62-25zM781 788V358L500 184 219 358v430h562zM156 397l-61 38 61 25v-63zM63-88v470l421-262c5-3 10-4 16-4s11 1 17 4l421 262V-88H63zm500 751h125c17 0 31 14 31 31s-14 31-31 31H563c-18 0-32-14-32-31s14-31 32-31zM313 538h375c17 0 31 14 31 31s-14 31-31 31H313c-18 0-32-14-32-31s14-31 32-31zm0-125h375c17 0 31 14 31 31s-14 31-31 31H313c-18 0-32-14-32-31s14-31 32-31z" horiz-adv-x="1000"/><glyph glyph-name="map" unicode="" d="M986 798c-8 6-19 7-29 3L656 681 355 801c-7 3-15 3-23 0L20 676c-12-5-20-16-20-29V-72c0-10 5-20 14-26 5-3 11-5 17-5 4 0 8 1 12 2L344 20l301-121c7-3 15-3 23 0L980 24c12 5 20 16 20 29v719c0 10-5 20-14 26zm-611-72l250-100V-26L375 74v652zM63 626l250 100V74L63-26v652zM938 74L688-26v652l250 100V74z" horiz-adv-x="1000"/><glyph glyph-name="measuring2" unicode="" d="M980 363L596 646c-18 13-41 13-59 0L158 363c-22-16-26-47-10-69s47-26 69-10l51 38V-61c0-27 22-49 49-49h499c28 0 50 22 50 49v386l55-41c9-7 20-10 30-10 15 0 30 7 39 20 17 22 12 53-10 69zm-213 18V-12H366v393c0 5-1 9-2 13l203 151 203-149c-2-5-3-10-3-15zm135 287c14 0 25 11 25 25v92c0 14-11 25-25 25H212c-13 0-24-11-24-25v-92c0-14 11-25 24-25 14 0 25 11 25 25v68h64v-30c0-9 7-16 16-16s16 7 16 16v30h63v-30c0-9 7-16 16-16s17 7 17 16v30h62v-30c0-9 7-16 16-16s17 7 17 16v30h62v-30c0-9 7-16 16-16s17 7 17 16v30h62v-30c0-9 7-16 16-16s17 7 17 16v30h62v-30c0-9 7-16 16-16s17 7 17 16v30h68v-68c0-14 11-25 25-25zM142-80c0 14-11 25-25 25H49V8h30c9 0 17 8 17 17s-8 16-17 16H49v62h30c9 0 17 8 17 17s-8 16-17 16H49v63h30c9 0 17 7 17 16s-8 16-17 16H49v63h30c9 0 17 7 17 16s-8 16-17 16H49v63h30c9 0 17 7 17 16s-8 17-17 17H49v62h30c9 0 17 7 17 16s-8 17-17 17H49v68h68c14 0 25 11 25 25s-11 24-25 24H25c-14 0-25-11-25-24V-80c0-14 11-25 25-25h92c14 0 25 12 25 25z" horiz-adv-x="1000"/><glyph glyph-name="old_video_cam" unicode="" d="M984 502c-9 6-21 6-31 0L734 373v102c0 17-14 31-31 31h-79c30 34 48 77 48 125 0 104-84 188-188 188-88 0-163-62-182-145-20 12-43 20-68 20-68 0-125-56-125-125 0-23 7-44 17-63H31c-17 0-31-14-31-31V100c0-14 10-27 24-30L696-87c2 0 5-1 7-1 7 0 14 3 20 7 7 6 11 15 11 25V45L953-83c10-6 22-6 31 0 10 5 16 15 16 27v531c0 11-6 22-16 27zM484 756c69 0 125-56 125-125s-56-125-125-125-125 56-125 125 56 125 125 125zM345 506h-2c0 1 0 1 1 2 0-1 1-1 1-2zm-173 63c0 34 28 62 62 62s63-28 63-62-28-63-63-63-62 28-62 63zM938-2L719 127c-10 6-22 6-31 0-10-5-16-16-16-27V-17L63 125v319h609V319c0-11 6-22 16-27 9-6 21-6 31 0l219 128V-2z" horiz-adv-x="1000"/><glyph glyph-name="paper_pen" unicode="" d="M830-36l34-69c10-18 25-29 42-29s33 11 42 29l35 69c10 20 17 52 17 74v718c0 35-28 63-62 63h-63c-34 0-62-28-62-63h-32c-34 0-62-28-62-62V569c0-17 14-31 31-31s31 14 31 31v125h32V38c0-22 7-54 17-74zm45 792h63V38c0-13-6-35-11-46l-21-41-20 41c-6 11-11 33-11 46v718zM63-119h562c35 0 63 28 63 63v625c0 25-14 57-32 75L513 788c-18 18-50 31-75 31H63c-35 0-63-28-63-63V-56c0-35 28-63 63-63zm518 750h-81v81l81-81zM63 756h375V631c0-34 28-62 62-62h125V-56H63v812zm93-156h172c17 0 31 14 31 31s-14 32-31 32H156c-17 0-31-14-31-32s14-31 31-31zm375-94H156c-17 0-31-14-31-31s14-31 31-31h375c18 0 32 14 32 31s-14 31-32 31zm0-125H156c-17 0-31-14-31-31s14-31 31-31h375c18 0 32 14 32 31s-14 31-32 31zm0-125H156c-17 0-31-14-31-31s14-31 31-31h375c18 0 32 14 32 31s-14 31-32 31zm0-125H156c-17 0-31-14-31-31s14-31 31-31h375c18 0 32 14 32 31s-14 31-32 31z" horiz-adv-x="1000"/><glyph glyph-name="queen6" unicode="" d="M0 371V51c0-14 12-26 26-26h137c14 0 26 12 26 26v81h622V51c0-14 12-26 26-26h137c14 0 26 12 26 26v320c0 14-12 26-26 26h-45v252c0 14-11 26-26 26H97c-14 0-26-12-26-26V397H26c-14 0-26-12-26-26zm123 252h754V397h-33c8 11 12 24 12 37v67c0 51-59 90-136 90H605c-44 0-82-13-106-34-25 21-63 34-107 34H277c-76 0-136-39-136-90v-67c0-13 5-26 12-37h-30v226zm70-189v67c0 16 33 38 84 38h115c40 0 68-13 79-26-1-4-1-8-1-12v-67c0-3 0-7 1-11-11-13-39-26-79-26H277c-51 0-84 22-84 37zm334-11c-4 4-6 8-6 11v67c0 4 2 8 6 12 10 13 39 26 78 26h115c52 0 84-22 84-38v-67c0-15-32-37-84-37H605c-39 0-68 13-78 26zM97 345h851V77h-85v81c0 14-11 26-26 26H163c-15 0-26-12-26-26V77H52v268h45z" horiz-adv-x="1000"/><glyph glyph-name="rainy" unicode="" d="M366 153c-12 13-32 13-44 0l-94-93c-12-13-12-32 0-45 6-6 14-9 22-9s16 3 22 9l94 94c12 12 12 32 0 44zm362 0L603 28c-12-12-12-32 0-44 6-6 14-9 22-9s16 3 22 9l125 125c12 12 12 32 0 44-12 13-32 13-44 0zm-203 0L306-65c-12-13-12-32 0-45 6-6 14-9 22-9s16 3 22 9l219 219c12 12 12 32 0 44-12 13-32 13-44 0zm349 350c-15 177-163 316-343 316-159 0-297-104-337-250h-6C84 569 0 485 0 381s84-187 188-187h656c86 0 156 70 156 156 0 76-54 139-126 153zm-30-247H188c-69 0-125 56-125 125s56 125 125 125h31c15 0 28 11 31 26 24 130 142 224 281 224 155 0 282-126 282-281 0-17 14-31 31-31 52 0 94-42 94-94s-42-94-94-94z" horiz-adv-x="1000"/><glyph glyph-name="rotate" unicode="" d="M469 819c0-17 14-31 31-31 117 0 227-46 309-129 83-82 129-192 129-309 0-115-45-224-125-306v87c0 18-14 32-32 32s-31-14-31-32V-56h188c17 0 31 14 31 31S955 6 938 6h-75c88 94 137 215 137 344 0 134-52 259-146 354-95 94-220 146-354 146-17 0-31-14-31-31zM147-4c94-94 220-146 353-146 17 0 31 14 31 31s-14 31-31 31C383-88 273-42 191 41 108 123 63 233 63 350c0 115 44 224 125 306v-87c0-17 14-31 31-31s31 14 31 31v187H63c-18 0-32-14-32-31s14-31 32-31h74C49 601 0 479 0 350 0 217 52 91 147-4z" horiz-adv-x="1000"/><glyph glyph-name="setting_1" unicode="" d="M710 310c-13 12-32 12-45 0l-24-25-50 49 109 110h50c123 0 188 75 188 219 0 10-6 20-15 26s-21 6-31 2l-105-53-30 31 52 105c5 9 5 21-1 30s-16 15-27 15c-143 0-218-65-218-188v-49L453 472 279 647l24 25c7 7 10 16 9 26-1 9-6 18-15 23l-156 93c-12 8-28 6-38-4l-31-32c-10-10-12-25-5-38l94-156c5-8 13-14 23-15h4c8 0 16 3 22 9l24 25 175-175L40 60c-3-4-6-8-7-13L2-46c-4-12-1-24 7-32l31-32c6-6 14-9 23-9 3 0 6 1 9 2l94 31c5 2 9 4 12 8l369 368 49-49-24-25c-12-12-12-32 0-44l281-282c6-6 14-9 22-9s16 3 22 9l94 94c12 12 12 32 0 44L710 310zM194 650l-56 93 93-55-37-38zM139-29L71-52l-4 4 23 69 526 526c6 6 9 14 9 22v62c0 53 14 107 104 122l-38-76c-6-13-4-27 6-37l62-62c10-10 24-12 36-6l76 38c-14-90-68-104-121-104h-62c-9 0-17-3-23-9L139-29zm736-14L638 194l50 49L925 6l-50-49z" horiz-adv-x="1000"/><glyph glyph-name="setting_2" unicode="" d="M31 225h103l18-54-80-80c-12-12-12-32 0-44L197-78c12-13 32-13 44 0l80 80 54-18v-103c0-17 14-31 31-31h188c17 0 31 14 31 31v103l54 18 80-80c12-13 32-13 44 0L928 47c13 12 13 32 0 44l-80 80 18 54h103c17 0 31 14 31 31v188c0 17-14 31-31 31H866l-18 54 80 80c13 12 13 32 0 44L803 778c-12 13-32 13-44 0l-80-80-54 18v103c0 17-14 31-31 31H406c-17 0-31-14-31-31V716l-54-18-80 80c-12 13-32 13-44 0L72 653c-12-12-12-32 0-44l80-80-18-54H31c-17 0-31-14-31-31V256c0-17 14-31 31-31zm32 188h93c14 0 26 8 30 21l31 94c4 11 1 23-7 32l-72 71 81 81 71-72c9-8 21-11 32-7l94 31c13 4 22 16 22 30v94h125v-94c0-14 8-26 21-30l94-31c11-4 23-1 32 7l71 72 81-81-72-71c-8-9-11-21-7-32l31-94c4-13 16-21 30-21h94V288h-94c-14 0-26-9-30-22l-31-94c-4-11-1-23 7-32l72-71-81-81-71 72c-9 8-21 11-32 7l-94-31c-13-4-21-16-21-30v-94H438V6c0 14-9 26-22 30l-94 31c-11 4-23 1-32-7l-71-72-81 81 72 71c8 9 11 21 7 32l-31 94c-4 13-16 22-30 22H63v125zm437-188c69 0 125 56 125 125s-56 125-125 125-125-56-125-125 56-125 125-125zm0 188c35 0 63-28 63-63s-28-62-63-62-62 28-62 62 28 63 62 63z" horiz-adv-x="1000"/><glyph glyph-name="share-1" unicode="" d="M188 6c60 0 114 29 148 74l260-96c11-76 76-134 154-134 86 0 156 70 156 156s-70 157-156 157c-71 0-132-49-150-114l-234 86c6 19 9 38 9 59 0 39-12 76-33 106l289 173c39-37 92-60 150-60 121 0 219 98 219 218s-98 219-219 219-218-98-218-219c0-39 10-76 29-108L297 346c-31 22-69 35-109 35C84 381 0 297 0 194S84 6 188 6zm562 94c52 0 94-42 94-94s-42-94-94-94-94 42-94 94 42 94 94 94zm31 688c86 0 157-71 157-157s-71-156-157-156-156 70-156 156 70 157 156 157zM188 319c68 0 125-56 125-125S256 69 188 69 63 125 63 194s56 125 125 125z" horiz-adv-x="1000"/><glyph glyph-name="shield_down" unicode="" d="M484-150c8 0 16 3 23 9l265 266c6 6 9 14 9 22v672c0 17-14 31-31 31H219c-17 0-31-14-31-31V147c0-8 3-16 9-22l265-266c6-6 14-9 22-9zM250 788h469V160L484-75 250 160v628z" horiz-adv-x="1000"/><glyph glyph-name="sunny" unicode="" d="M500 631c-155 0-281-126-281-281S345 69 500 69s281 126 281 281-126 281-281 281zm0-500c-121 0-219 98-219 219s98 219 219 219 219-98 219-219-98-219-219-219zm-31 688V694c0-17 14-31 31-31s31 14 31 31v125c0 17-14 31-31 31s-31-14-31-31zm31-781c-17 0-31-14-31-32v-125c0-17 14-31 31-31s31 14 31 31V6c0 18-14 32-31 32zm469 343H844c-17 0-31-14-31-31s14-31 31-31h125c17 0 31 14 31 31s-14 31-31 31zm-781-31c0 17-14 31-32 31H31c-17 0-31-14-31-31s14-31 31-31h125c18 0 32 14 32 31zm602 335l-62-63c-12-12-12-32 0-44 6-6 14-9 22-9s16 3 22 9l63 62c12 13 12 32 0 45-13 12-32 12-45 0zM228 122l-63-62c-12-13-12-32 0-45 7-6 15-9 23-9s16 3 22 9l62 63c12 12 12 32 0 44s-32 12-44 0zm544 0c-12 12-32 12-44 0s-12-32 0-44l62-63c7-6 15-9 23-9s16 3 22 9c12 13 12 32 0 45l-63 62zM165 685c-12-13-12-32 0-45l63-62c6-6 14-9 22-9s16 3 22 9c12 12 12 32 0 44l-62 63c-13 12-32 12-45 0z" horiz-adv-x="1000"/><glyph glyph-name="tablet-1" unicode="" d="M875-119v938c0 17-14 31-31 31H156c-17 0-31-14-31-31v-938c0-17 14-31 31-31h688c17 0 31 14 31 31zm-62 31H188v876h625V-88zM478 28c-6-5-9-14-9-22s3-16 9-22 14-9 22-9 16 3 22 9 9 14 9 22-3 17-9 22c-11 12-32 12-44 0zm-56 635h156c17 0 31 14 31 31s-14 31-31 31H422c-17 0-31-14-31-31s14-31 31-31z" horiz-adv-x="1000"/></font>
</defs>
</svg>
